<?xml version="1.0" encoding="UTF-8" standalone="no"?>
<!-- Uploaded to: SVG Repo, www.svgrepo.com, Generator: SVG Repo Mixer Tools -->

<svg
   width="565.3407"
   height="641.1568"
   viewBox="-52.5 0 255.10999 289.32201"
   preserveAspectRatio="xMinYMin"
   version="1.1"
   id="svg5"
   sodipodi:docname="html.svg"
   inkscape:version="1.3.1 (91b66b0, 2023-11-16)"
   xmlns:inkscape="http://www.inkscape.org/namespaces/inkscape"
   xmlns:sodipodi="http://sodipodi.sourceforge.net/DTD/sodipodi-0.dtd"
   xmlns="http://www.w3.org/2000/svg"
   xmlns:svg="http://www.w3.org/2000/svg">
  <sodipodi:namedview
     id="namedview1"
     pagecolor="#505050"
     bordercolor="#ffffff"
     borderopacity="1"
     inkscape:showpageshadow="0"
     inkscape:pageopacity="0"
     inkscape:pagecheckerboard="1"
     inkscape:deskcolor="#505050"
     inkscape:zoom="0.36808469"
     inkscape:cx="282.54367"
     inkscape:cy="319.22002"
     inkscape:window-width="1440"
     inkscape:window-height="900"
     inkscape:window-x="0"
     inkscape:window-y="0"
     inkscape:window-maximized="0"
     inkscape:current-layer="svg5" />
  <defs
     id="defs5">
    <clipPath
       clipPathUnits="userSpaceOnUse"
       id="clipPath1">
      <rect
         style="fill:#edf1f4;fill-opacity:1;stroke-width:0.045125;paint-order:stroke fill markers"
         id="rect2"
         width="273.80933"
         height="295.22458"
         x="-8.1398306"
         y="65.775421" />
    </clipPath>
  </defs>
  <path
     d="M 255.555,70.766 232.314,331.126 127.844,360.088 23.662,331.166 0.445,70.766 Z"
     fill="#e44d26"
     id="path1"
     clip-path="url(#clipPath1)"
     transform="translate(-52.945,-70.766)" />
  <path
     d="m 75.055,267.184 84.417,-23.403 19.86,-222.49 H 75.055 Z"
     fill="#f16529"
     id="path2" />
  <path
     d="m 29.875,85.166 h 45.18 V 53.229 H -5.028 l 0.764,8.568 7.85,88.01 H 75.055 V 117.87 H 32.794 Z m 7.198,80.61 H 5.013 l 4.474,50.146 65.421,18.16 0.147,-0.04 v -33.228 l -0.14,0.037 -35.568,-9.604 z"
     fill="#ebebeb"
     id="path3" />
  <path
     d="m 74.945,149.807 h 39.327 l -3.708,41.42 -35.62,9.614 v 33.226 l 65.473,-18.145 0.48,-5.396 7.506,-84.08 0.779,-8.576 H 74.945 Z m 0,-64.719 v 0.078 h 77.143 l 0.64,-7.178 1.456,-16.191 0.763,-8.568 H 74.945 v 31.86 z"
     fill="#ffffff"
     id="path5"
     inkscape:export-filename="html.svg"
     inkscape:export-xdpi="96"
     inkscape:export-ydpi="96" />
</svg>
