<?xml version="1.0" encoding="UTF-8" standalone="no"?>
<!-- Generator: Adobe Illustrator 27.5.0, SVG Export Plug-In . SVG Version: 6.00 Build 0)  -->

<svg
   version="1.1"
   x="0px"
   y="0px"
   viewBox="0 0 344.24536 408.95801"
   xml:space="preserve"
   id="svg309"
   width="344.24536"
   height="408.95801"
   sodipodi:docname="Dock.svg"
   inkscape:version="1.3.1 (91b66b0, 2023-11-16)"
   xmlns:inkscape="http://www.inkscape.org/namespaces/inkscape"
   xmlns:sodipodi="http://sodipodi.sourceforge.net/DTD/sodipodi-0.dtd"
   xmlns="http://www.w3.org/2000/svg"
   xmlns:svg="http://www.w3.org/2000/svg"><sodipodi:namedview
   id="namedview1"
   pagecolor="#505050"
   bordercolor="#ffffff"
   borderopacity="1"
   inkscape:showpageshadow="0"
   inkscape:pageopacity="0"
   inkscape:pagecheckerboard="1"
   inkscape:deskcolor="#505050"
   inkscape:zoom="2.420343"
   inkscape:cx="301.19698"
   inkscape:cy="321.02887"
   inkscape:window-width="1440"
   inkscape:window-height="629"
   inkscape:window-x="0"
   inkscape:window-y="25"
   inkscape:window-maximized="0"
   inkscape:current-layer="svg309" /><defs
   id="defs309" />


<g
   id="Dock"
   transform="translate(-200.667,-78.44198)"
   style="display:inline">
	<g
   id="g72">
		<path
   style="fill:#455a64"
   d="m 495.383,432.714 -12.427,1.263 9.605,-5.461 -16.057,-23.882 -12.626,-1.25 10.174,-2.397 -35.692,-53.089 H 291.015 l -1.553,2.393 v 0 l 4.468,2.131 -6.072,1.102 c 0,0 2.43,1.47 2.844,1.489 0.413,0.018 -5.707,2.164 -5.707,2.164 l -17.254,26.592 4.194,1.619 -7.333,3.217 -63.935,98.535 h 331.307 z"
   id="path22" />
		<g
   id="g23">
			<path
   style="fill:#263238"
   d="m 447.496,361.639 c 0,0.144 -36.969,0.26 -82.562,0.26 -45.609,0 -82.57,-0.117 -82.57,-0.26 0,-0.143 36.961,-0.26 82.57,-0.26 45.593,0 82.562,0.117 82.562,0.26 z"
   id="path23" />
		</g>
		<g
   id="g24">
			<path
   style="fill:#263238"
   d="m 458.621,377.631 c 0,0.144 -41.794,0.26 -93.339,0.26 -51.562,0 -93.348,-0.117 -93.348,-0.26 0,-0.143 41.785,-0.26 93.348,-0.26 51.545,0 93.339,0.116 93.339,0.26 z"
   id="path24" />
		</g>
		<g
   id="g25">
			<path
   style="fill:#263238"
   d="m 469.802,394.666 c 0,0.144 -46.633,0.26 -104.144,0.26 -57.531,0 -104.154,-0.117 -104.154,-0.26 0,-0.144 46.623,-0.26 104.154,-0.26 57.512,0 104.144,0.116 104.144,0.26 z"
   id="path25" />
		</g>
		<g
   id="g26">
			<path
   style="fill:#263238"
   d="m 482.956,414.829 c 0,0.144 -52.768,0.26 -117.847,0.26 -65.101,0 -117.858,-0.117 -117.858,-0.26 0,-0.143 52.757,-0.26 117.858,-0.26 65.079,0 117.847,0.117 117.847,0.26 z"
   id="path26" />
		</g>
		<g
   id="g27">
			<path
   style="fill:#263238"
   d="m 499.419,438.717 c 0,0.144 -59.49,0.127 -132.857,-0.037 -73.392,-0.165 -132.869,-0.414 -132.869,-0.558 0,-0.144 59.477,-0.127 132.87,0.038 73.367,0.164 132.856,0.414 132.856,0.557 z"
   id="path27" />
		</g>
		<g
   id="g28">
			<path
   style="fill:#263238"
   d="m 514.592,462.457 c 0,0.144 -66.544,0.26 -148.612,0.26 -82.096,0 -148.626,-0.116 -148.626,-0.26 0,-0.144 66.53,-0.26 148.626,-0.26 82.068,0 148.612,0.116 148.612,0.26 z"
   id="path28" />
		</g>
		<g
   id="g29">
			<path
   style="fill:#263238"
   d="m 531.975,487.14 c 0,0.144 -74.172,0.26 -165.646,0.26 -91.506,0 -165.662,-0.117 -165.662,-0.26 0,-0.144 74.156,-0.26 165.662,-0.26 91.474,0 165.646,0.116 165.646,0.26 z"
   id="path29" />
		</g>
		<g
   id="g30">
			<path
   style="fill:#263238"
   d="m 286.581,381.564 c 0,0.058 -0.247,0.104 -0.551,0.104 -0.305,0 -0.551,-0.047 -0.551,-0.104 0,-0.057 0.247,-0.104 0.551,-0.104 0.304,0 0.551,0.047 0.551,0.104 z"
   id="path30" />
		</g>
		<g
   id="g31">
			<path
   style="fill:#263238"
   d="m 331.412,380.462 c 0,0.058 -8.391,0.104 -18.74,0.104 -10.352,0 -18.742,-0.047 -18.742,-0.104 0,-0.058 8.389,-0.104 18.742,-0.104 10.349,0 18.74,0.046 18.74,0.104 z"
   id="path31" />
		</g>
		<g
   id="g32">
			<path
   style="fill:#263238"
   d="m 335.454,383.769 c 0,0.057 -8.309,0.104 -18.556,0.104 -10.251,0 -18.558,-0.047 -18.558,-0.104 0,-0.057 8.307,-0.104 18.558,-0.104 10.247,0 18.556,0.047 18.556,0.104 z"
   id="path32" />
		</g>
		<g
   id="g33">
			<path
   style="fill:#263238"
   d="m 445.328,386.709 c 0,0.057 -5.265,0.104 -11.758,0.104 -6.496,0 -11.76,-0.047 -11.76,-0.104 0,-0.057 5.264,-0.104 11.76,-0.104 6.493,0 11.758,0.046 11.758,0.104 z"
   id="path33" />
		</g>
		<g
   id="g34">
			<path
   style="fill:#263238"
   d="m 459.482,407.5 c 0,0 -0.447,0.039 -1.299,0.092 -0.887,0.052 -2.137,0.125 -3.73,0.219 -3.242,0.028 -7.949,0.077 -13.728,-0.502 -5.781,-0.516 -12.622,-1.515 -20.193,-2.732 -7.571,-1.201 -15.901,-2.564 -24.725,-3.204 -8.824,-0.6 -17.299,-0.144 -24.819,1.354 -7.533,1.436 -14.127,3.557 -19.606,5.438 -5.474,1.913 -9.841,3.636 -12.864,4.811 -1.486,0.582 -2.651,1.038 -3.478,1.362 -0.796,0.31 -1.217,0.463 -1.217,0.463 0,0 0.411,-0.179 1.202,-0.502 0.823,-0.332 1.984,-0.801 3.463,-1.398 3.014,-1.198 7.374,-2.942 12.845,-4.874 5.477,-1.9 12.073,-4.038 19.618,-5.487 7.531,-1.511 16.032,-1.974 24.869,-1.373 8.837,0.642 17.172,2.011 24.741,3.223 7.569,1.227 14.402,2.241 20.176,2.775 5.771,0.597 10.472,0.57 13.712,0.567 1.593,-0.077 2.843,-0.137 3.73,-0.18 0.854,-0.042 1.303,-0.052 1.303,-0.052 z"
   id="path34" />
		</g>
		<g
   id="g35">
			<path
   style="fill:#263238"
   d="m 453.641,452.081 c 0,0.058 -49.609,0.104 -110.79,0.104 -61.202,0 -110.8,-0.047 -110.8,-0.104 0,-0.057 49.598,-0.104 110.8,-0.104 61.181,0 110.79,0.047 110.79,0.104 z"
   id="path35" />
		</g>
		<g
   id="g36">
			<path
   style="fill:#263238"
   d="m 504.531,450.186 c 0,0.058 -21.531,0.104 -48.085,0.104 -26.563,0 -48.09,-0.047 -48.09,-0.104 0,-0.058 21.527,-0.104 48.09,-0.104 26.554,0 48.085,0.046 48.085,0.104 z"
   id="path36" />
		</g>
		<g
   id="g37">
			<path
   style="fill:#263238"
   d="m 409.899,475.387 c 0,0.058 -42.717,0.104 -95.399,0.104 -52.7,0 -95.408,-0.047 -95.408,-0.104 0,-0.057 42.708,-0.104 95.408,-0.104 52.682,0 95.399,0.046 95.399,0.104 z"
   id="path37" />
		</g>
		<g
   id="g38">
			<path
   style="fill:#263238"
   d="m 523.035,473.844 c 0,0.058 -36.612,0.104 -81.765,0.104 -45.168,0 -81.773,-0.047 -81.773,-0.104 0,-0.057 36.604,-0.104 81.773,-0.104 45.153,0 81.765,0.046 81.765,0.104 z"
   id="path38" />
		</g>
		<g
   id="g39">
			<path
   style="fill:#263238"
   d="m 479.845,425.499 c 0,0.057 -30.282,0.104 -67.628,0.104 -37.359,0 -67.634,-0.047 -67.634,-0.104 0,-0.057 30.275,-0.104 67.634,-0.104 37.346,0 67.628,0.047 67.628,0.104 z"
   id="path39" />
		</g>
		<g
   id="g40">
			<path
   style="fill:#263238"
   d="m 348.697,403.384 c 0,0.058 -19.113,0.104 -42.685,0.104 -23.58,0 -42.689,-0.047 -42.689,-0.104 0,-0.057 19.109,-0.104 42.689,-0.104 23.572,0 42.685,0.047 42.685,0.104 z"
   id="path40" />
		</g>
		<g
   id="g41">
			<path
   style="fill:#263238"
   d="m 408.356,386.412 c 0,0.057 -12.32,0.104 -27.514,0.104 -15.199,0 -27.517,-0.047 -27.517,-0.104 0,-0.057 12.317,-0.104 27.517,-0.104 15.194,0 27.514,0.047 27.514,0.104 z"
   id="path41" />
		</g>
		<g
   id="g42">
			<path
   style="fill:#263238"
   d="m 443.329,371.497 c 0,0.058 -17.732,0.104 -39.6,0.104 -21.876,0 -39.603,-0.047 -39.603,-0.104 0,-0.058 17.728,-0.104 39.603,-0.104 21.869,0 39.6,0.047 39.6,0.104 z"
   id="path42" />
		</g>
		<g
   id="g43">
			<path
   style="fill:#263238"
   d="m 339.44,352.982 c 0,0.057 -8.981,0.104 -20.057,0.104 -11.08,0 -20.059,-0.047 -20.059,-0.104 0,-0.057 8.979,-0.104 20.059,-0.104 11.076,0 20.057,0.047 20.057,0.104 z"
   id="path43" />
		</g>
		<g
   id="g44">
			<path
   style="fill:#263238"
   d="m 262.658,436.198 c 0,0 0.002,-0.16 0.016,-0.474 0.04,-0.31 0.091,-0.78 0.306,-1.356 0.39,-1.167 1.456,-2.697 3.221,-4.212 3.528,-2.991 9.174,-6.87 17.034,-9.628 7.814,-2.794 17.789,-4.38 28.756,-3.565 1.367,0.12 2.752,0.255 4.147,0.426 1.39,0.217 2.804,0.376 4.216,0.657 1.41,0.278 2.84,0.655 4.15,1.352 1.311,0.683 2.461,1.761 3.131,3.128 0.698,1.355 0.703,3.067 -0.042,4.435 -0.727,1.381 -1.976,2.394 -3.29,3.199 -1.322,0.823 -2.784,1.382 -4.224,1.99 -0.733,0.276 -1.468,0.552 -2.205,0.83 -0.748,0.248 -1.498,0.496 -2.251,0.745 -6.063,1.875 -12.272,2.722 -18.251,2.671 -2.99,-0.024 -5.925,-0.272 -8.767,-0.717 -1.424,-0.212 -2.815,-0.5 -4.193,-0.814 -0.677,-0.186 -1.379,-0.45 -1.872,-0.998 -0.496,-0.547 -0.601,-1.383 -0.311,-2.037 0.592,-1.319 1.853,-2.088 3.018,-2.695 1.169,-0.656 2.377,-1.199 3.576,-1.708 2.413,-0.986 4.862,-1.67 7.266,-2.111 4.815,-0.88 9.45,-0.738 13.522,0.083 0.511,0.091 1.02,0.218 1.486,0.443 0.462,0.218 0.894,0.591 1.037,1.098 0.174,0.497 0.024,1.049 -0.281,1.437 -0.3,0.396 -0.701,0.682 -1.109,0.917 -0.822,0.487 -1.74,0.657 -2.59,0.861 -0.858,0.199 -1.693,0.375 -2.502,0.537 -3.237,0.638 -6.064,0.968 -8.376,1.164 -2.315,0.185 -4.118,0.232 -5.339,0.242 -1.222,0.011 -1.863,-0.015 -1.863,-0.015 0.301,-0.004 0.802,-0.012 1.863,-0.027 1.221,-0.024 3.022,-0.084 5.333,-0.281 2.309,-0.208 5.13,-0.549 8.36,-1.198 0.807,-0.164 1.64,-0.343 2.496,-0.544 0.854,-0.207 1.753,-0.378 2.553,-0.855 0.397,-0.23 0.784,-0.51 1.065,-0.883 0.285,-0.368 0.415,-0.859 0.257,-1.313 -0.131,-0.46 -0.523,-0.801 -0.967,-1.011 -0.447,-0.215 -0.943,-0.338 -1.452,-0.428 -4.057,-0.808 -8.672,-0.941 -13.463,-0.058 -2.392,0.442 -4.828,1.127 -7.228,2.111 -1.192,0.508 -2.393,1.049 -3.555,1.703 -1.162,0.603 -2.38,1.369 -2.93,2.603 -0.264,0.604 -0.167,1.341 0.279,1.838 0.446,0.497 1.114,0.757 1.777,0.937 1.36,0.308 2.756,0.597 4.173,0.806 2.832,0.442 5.757,0.687 8.738,0.71 5.958,0.048 12.146,-0.797 18.188,-2.666 0.75,-0.248 1.497,-0.496 2.243,-0.743 0.735,-0.276 1.467,-0.552 2.197,-0.827 1.437,-0.606 2.891,-1.162 4.193,-1.973 1.296,-0.793 2.516,-1.789 3.215,-3.117 0.714,-1.316 0.712,-2.941 0.041,-4.25 -0.647,-1.321 -1.762,-2.372 -3.042,-3.039 -1.283,-0.684 -2.693,-1.058 -4.094,-1.335 -1.405,-0.28 -2.818,-0.44 -4.203,-0.658 -1.392,-0.171 -2.773,-0.307 -4.137,-0.428 -10.94,-0.824 -20.891,0.743 -28.693,3.512 -7.847,2.734 -13.493,6.585 -17.03,9.551 -1.767,1.5 -2.835,3.011 -3.235,4.165 -0.22,0.57 -0.277,1.036 -0.324,1.344 -0.018,0.309 -0.034,0.469 -0.034,0.469 z"
   id="path44" />
		</g>
		<g
   id="g51">
			<path
   style="fill:#263238"
   d="m 280.724,393.219 c -4.023,1.219 -7.884,1.348 -11.525,0 v -36.265 c 4.178,-2.074 7.992,-1.907 11.525,0 z"
   id="path45" />
			<g
   id="g46">
				<path
   style="fill:#455a64"
   d="m 280.741,356.973 c 0.006,0.013 -0.138,0.088 -0.405,0.213 -0.265,0.129 -0.663,0.286 -1.163,0.451 -0.999,0.334 -2.441,0.646 -4.057,0.672 -1.616,0.021 -3.067,-0.247 -4.076,-0.552 -0.505,-0.151 -0.907,-0.296 -1.176,-0.417 -0.271,-0.117 -0.417,-0.188 -0.411,-0.201 0.014,-0.036 0.616,0.212 1.627,0.476 1.009,0.265 2.44,0.506 4.033,0.485 1.592,-0.026 3.016,-0.31 4.017,-0.605 1.002,-0.292 1.596,-0.558 1.611,-0.522 z"
   id="path46" />
			</g>
			<g
   id="g47">
				<path
   style="fill:#455a64"
   d="m 278.773,356.677 c 0,0 -0.132,0.182 -0.483,0.361 -0.35,0.185 -0.905,0.315 -1.588,0.419 -0.685,0.104 -1.513,0.166 -2.43,0.126 -0.459,-0.022 -0.937,-0.066 -1.435,-0.147 -0.246,-0.053 -0.539,-0.119 -0.719,-0.396 -0.179,-0.301 0.03,-0.667 0.292,-0.793 0.546,-0.226 1.05,-0.201 1.555,-0.244 0.501,-0.017 0.986,0.008 1.442,0.066 0.229,0.029 0.45,0.065 0.664,0.108 0.222,0.053 0.451,0.131 0.587,0.355 0.148,0.265 -0.118,0.533 -0.317,0.545 -0.205,0.047 -0.392,0.019 -0.561,0.014 -0.581,-0.034 -1.12,-0.065 -1.63,-0.095 -0.385,-0.027 -0.597,-0.049 -0.597,-0.063 10e-4,-0.014 0.214,-0.02 0.6,-0.018 0.511,0.009 1.05,0.018 1.633,0.029 0.174,0.002 0.353,0.021 0.517,-0.023 0.168,-0.03 0.278,-0.177 0.203,-0.308 -0.186,-0.279 -0.691,-0.287 -1.121,-0.353 -0.876,-0.086 -1.941,-0.119 -2.874,0.17 -0.2,0.103 -0.318,0.339 -0.212,0.507 0.101,0.17 0.351,0.255 0.576,0.298 0.481,0.08 0.957,0.129 1.407,0.156 0.904,0.05 1.721,0.004 2.401,-0.08 0.681,-0.085 1.227,-0.191 1.574,-0.347 0.348,-0.15 0.503,-0.303 0.516,-0.287 z"
   id="path47" />
			</g>
			<g
   id="g48">
				<path
   style="fill:#455a64"
   d="m 268.882,378.966 c -0.007,-0.001 0,-0.076 0.021,-0.215 0.031,-0.193 0.064,-0.394 0.099,-0.61 0.114,-0.65 0.244,-1.392 0.392,-2.237 0.332,-1.889 0.78,-4.499 1.232,-7.389 0.451,-2.891 0.82,-5.514 1.08,-7.414 0.117,-0.85 0.219,-1.596 0.309,-2.25 0.032,-0.216 0.063,-0.418 0.091,-0.611 0.023,-0.139 0.039,-0.212 0.046,-0.211 0.007,10e-4 0.006,0.075 -0.004,0.216 -0.017,0.195 -0.034,0.398 -0.053,0.616 -0.071,0.656 -0.152,1.406 -0.244,2.259 -0.222,1.906 -0.569,4.534 -1.02,7.428 -0.452,2.892 -0.923,5.501 -1.293,7.384 -0.172,0.841 -0.324,1.579 -0.457,2.226 -0.049,0.213 -0.094,0.412 -0.137,0.603 -0.034,0.135 -0.055,0.206 -0.062,0.205 z"
   id="path48" />
			</g>
			<g
   id="g49">
				<path
   style="fill:#455a64"
   d="m 280.545,362.835 c -0.012,0.023 -0.255,-0.189 -0.791,-0.313 -0.525,-0.121 -1.371,-0.097 -2.221,0.391 -0.855,0.484 -1.614,1.414 -2.287,2.528 -0.692,1.109 -1.36,2.385 -1.966,3.767 -1.212,2.769 -1.972,5.409 -2.524,7.312 -0.244,0.858 -0.456,1.608 -0.641,2.26 -0.064,0.218 -0.124,0.42 -0.181,0.613 -0.044,0.14 -0.07,0.212 -0.077,0.21 -0.007,-0.002 0.006,-0.078 0.036,-0.221 0.045,-0.196 0.092,-0.401 0.143,-0.623 0.167,-0.657 0.358,-1.414 0.578,-2.279 0.516,-1.915 1.255,-4.57 2.475,-7.357 0.61,-1.39 1.289,-2.674 1.995,-3.786 0.686,-1.117 1.478,-2.068 2.377,-2.554 0.897,-0.492 1.776,-0.491 2.313,-0.341 0.548,0.155 0.771,0.393 0.771,0.393 z"
   id="path49" />
			</g>
			<g
   id="g50">
				<path
   style="fill:#455a64"
   d="m 276.734,382.218 c 0,0 0.209,0.106 0.344,0.494 0.121,0.359 0.113,1.093 -0.536,1.573 -0.635,0.45 -1.83,0.324 -2.503,-0.573 -0.697,-0.885 -0.734,-2.249 -0.403,-3.545 0.165,-0.655 0.306,-1.346 0.585,-2.042 0.272,-0.683 0.788,-1.382 1.591,-1.644 0.827,-0.284 1.718,0.205 2.243,0.863 0.557,0.66 0.939,1.462 1.256,2.3 0.607,1.69 0.742,3.651 0.284,5.556 -0.463,1.885 -1.478,3.789 -3.196,5.012 -0.847,0.587 -1.939,0.955 -2.96,0.655 -1.018,-0.294 -1.735,-1.158 -2.097,-2.067 -0.372,-0.928 -0.399,-1.921 -0.337,-2.852 0.071,-0.936 0.205,-1.838 0.336,-2.721 0.529,-3.526 1.508,-6.641 2.84,-8.999 1.318,-2.369 2.904,-3.945 4.099,-4.857 1.204,-0.917 1.986,-1.235 1.986,-1.235 0,0 -0.176,0.113 -0.519,0.31 -0.333,0.213 -0.833,0.517 -1.418,0.989 -1.173,0.925 -2.729,2.505 -4.02,4.864 -1.304,2.348 -2.262,5.444 -2.779,8.957 -0.128,0.878 -0.26,1.783 -0.327,2.705 -0.06,0.917 -0.027,1.882 0.328,2.763 0.346,0.868 1.029,1.676 1.965,1.944 0.938,0.277 1.966,-0.061 2.785,-0.628 1.655,-1.175 2.663,-3.045 3.115,-4.887 0.451,-1.865 0.323,-3.788 -0.267,-5.444 -0.306,-0.819 -0.683,-1.613 -1.214,-2.246 -0.509,-0.635 -1.312,-1.068 -2.053,-0.817 -0.733,0.235 -1.228,0.882 -1.494,1.542 -0.273,0.669 -0.422,1.366 -0.589,2.013 -0.336,1.282 -0.303,2.591 0.353,3.441 0.628,0.856 1.763,0.99 2.366,0.575 0.615,-0.437 0.647,-1.144 0.541,-1.493 -0.117,-0.378 -0.322,-0.496 -0.305,-0.506 z"
   id="path50" />
			</g>
		</g>
		<g
   id="g57">
			<path
   style="fill:#263238"
   d="m 464.246,391.283 c -4.023,1.22 -7.884,1.348 -11.525,0 v -36.265 c 4.178,-2.074 7.992,-1.907 11.525,0 z"
   id="path51" />
			<g
   id="g52">
				<path
   style="fill:#455a64"
   d="m 464.263,355.037 c 0.006,0.013 -0.138,0.088 -0.405,0.213 -0.265,0.129 -0.663,0.286 -1.163,0.452 -0.999,0.334 -2.441,0.646 -4.057,0.672 -1.616,0.021 -3.067,-0.247 -4.076,-0.552 -0.505,-0.151 -0.907,-0.296 -1.176,-0.417 -0.271,-0.117 -0.417,-0.188 -0.411,-0.201 0.014,-0.036 0.616,0.212 1.627,0.476 1.009,0.265 2.44,0.506 4.033,0.485 1.592,-0.026 3.016,-0.31 4.017,-0.605 1.002,-0.293 1.596,-0.559 1.611,-0.523 z"
   id="path52" />
			</g>
			<g
   id="g53">
				<path
   style="fill:#455a64"
   d="m 462.295,354.741 c 0,0 -0.132,0.182 -0.483,0.361 -0.35,0.185 -0.905,0.315 -1.588,0.419 -0.685,0.104 -1.513,0.166 -2.43,0.126 -0.459,-0.022 -0.937,-0.066 -1.435,-0.147 -0.246,-0.053 -0.539,-0.119 -0.719,-0.396 -0.179,-0.302 0.03,-0.668 0.292,-0.793 0.546,-0.226 1.05,-0.201 1.555,-0.244 0.501,-0.017 0.986,0.008 1.443,0.066 0.228,0.029 0.45,0.065 0.664,0.108 0.222,0.053 0.451,0.131 0.587,0.355 0.148,0.265 -0.118,0.533 -0.317,0.545 -0.205,0.047 -0.391,0.019 -0.561,0.014 -0.581,-0.034 -1.12,-0.065 -1.63,-0.095 -0.385,-0.027 -0.597,-0.049 -0.597,-0.063 10e-4,-0.014 0.214,-0.02 0.6,-0.018 0.511,0.009 1.05,0.018 1.633,0.029 0.174,0.002 0.353,0.021 0.517,-0.023 0.168,-0.03 0.278,-0.177 0.203,-0.308 -0.185,-0.279 -0.691,-0.287 -1.121,-0.353 -0.876,-0.086 -1.942,-0.119 -2.874,0.17 -0.2,0.103 -0.318,0.339 -0.212,0.507 0.101,0.17 0.351,0.255 0.576,0.298 0.481,0.08 0.957,0.129 1.407,0.156 0.904,0.05 1.721,0.004 2.401,-0.08 0.681,-0.085 1.227,-0.191 1.574,-0.346 0.347,-0.151 0.503,-0.304 0.515,-0.288 z"
   id="path53" />
			</g>
			<g
   id="g54">
				<path
   style="fill:#455a64"
   d="m 452.404,377.03 c -0.007,-10e-4 0,-0.076 0.021,-0.215 0.031,-0.193 0.064,-0.394 0.099,-0.61 0.114,-0.65 0.244,-1.392 0.391,-2.237 0.332,-1.889 0.78,-4.499 1.232,-7.389 0.451,-2.891 0.82,-5.514 1.08,-7.414 0.117,-0.85 0.219,-1.596 0.309,-2.25 0.032,-0.216 0.063,-0.418 0.091,-0.611 0.023,-0.139 0.039,-0.212 0.046,-0.211 0.007,10e-4 0.005,0.075 -0.004,0.216 -0.017,0.195 -0.034,0.398 -0.053,0.616 -0.071,0.656 -0.152,1.406 -0.244,2.259 -0.222,1.906 -0.569,4.534 -1.02,7.428 -0.452,2.892 -0.923,5.501 -1.293,7.384 -0.173,0.841 -0.324,1.579 -0.457,2.226 -0.049,0.213 -0.094,0.412 -0.138,0.603 -0.032,0.135 -0.053,0.206 -0.06,0.205 z"
   id="path54" />
			</g>
			<g
   id="g55">
				<path
   style="fill:#455a64"
   d="m 464.067,360.899 c -0.012,0.023 -0.255,-0.189 -0.79,-0.313 -0.525,-0.121 -1.371,-0.098 -2.221,0.391 -0.855,0.484 -1.614,1.414 -2.287,2.528 -0.692,1.109 -1.36,2.385 -1.966,3.767 -1.212,2.769 -1.972,5.409 -2.524,7.312 -0.243,0.858 -0.456,1.608 -0.641,2.26 -0.064,0.218 -0.124,0.42 -0.181,0.613 -0.043,0.14 -0.07,0.212 -0.077,0.21 -0.007,-0.002 0.006,-0.078 0.036,-0.221 0.045,-0.196 0.092,-0.401 0.143,-0.623 0.167,-0.657 0.358,-1.414 0.578,-2.279 0.516,-1.915 1.255,-4.57 2.475,-7.357 0.61,-1.391 1.289,-2.674 1.995,-3.786 0.686,-1.116 1.478,-2.068 2.377,-2.554 0.897,-0.492 1.776,-0.491 2.313,-0.341 0.547,0.155 0.77,0.393 0.77,0.393 z"
   id="path55" />
			</g>
			<g
   id="g56">
				<path
   style="fill:#455a64"
   d="m 460.257,380.282 c 0,0 0.209,0.106 0.344,0.494 0.121,0.359 0.113,1.093 -0.536,1.573 -0.636,0.45 -1.83,0.324 -2.504,-0.573 -0.697,-0.885 -0.734,-2.249 -0.403,-3.545 0.165,-0.655 0.306,-1.346 0.585,-2.042 0.272,-0.683 0.788,-1.382 1.591,-1.644 0.827,-0.284 1.718,0.205 2.243,0.863 0.557,0.66 0.939,1.462 1.256,2.3 0.607,1.69 0.742,3.651 0.284,5.556 -0.463,1.885 -1.478,3.789 -3.196,5.012 -0.847,0.587 -1.939,0.955 -2.96,0.655 -1.018,-0.294 -1.735,-1.158 -2.097,-2.067 -0.371,-0.928 -0.399,-1.921 -0.337,-2.852 0.071,-0.936 0.205,-1.838 0.336,-2.721 0.529,-3.526 1.508,-6.641 2.84,-8.999 1.318,-2.369 2.904,-3.945 4.099,-4.857 1.204,-0.917 1.986,-1.234 1.986,-1.234 0,0 -0.176,0.113 -0.519,0.31 -0.333,0.213 -0.833,0.517 -1.417,0.989 -1.173,0.925 -2.729,2.505 -4.02,4.864 -1.304,2.348 -2.262,5.444 -2.779,8.957 -0.128,0.878 -0.26,1.783 -0.327,2.705 -0.06,0.917 -0.027,1.882 0.328,2.763 0.346,0.868 1.029,1.677 1.965,1.944 0.938,0.277 1.966,-0.061 2.785,-0.628 1.655,-1.175 2.663,-3.045 3.115,-4.887 0.451,-1.865 0.323,-3.788 -0.267,-5.444 -0.306,-0.819 -0.683,-1.613 -1.214,-2.246 -0.509,-0.635 -1.312,-1.068 -2.053,-0.817 -0.733,0.235 -1.228,0.882 -1.494,1.542 -0.273,0.669 -0.422,1.366 -0.589,2.013 -0.336,1.281 -0.303,2.591 0.353,3.441 0.628,0.856 1.763,0.99 2.366,0.575 0.615,-0.437 0.647,-1.144 0.541,-1.493 -0.118,-0.379 -0.322,-0.497 -0.305,-0.507 z"
   id="path56" />
			</g>
		</g>
		<g
   id="g63">
			<path
   style="fill:#263238"
   d="m 233.442,467.658 c -4.492,1.362 -8.803,1.505 -12.868,0 v -40.491 c 4.665,-2.316 8.924,-2.13 12.868,0 z"
   id="path57" />
			<g
   id="g58">
				<path
   style="fill:#455a64"
   d="m 233.462,427.188 c 0.006,0.013 -0.156,0.096 -0.454,0.234 -0.297,0.142 -0.741,0.316 -1.3,0.5 -1.116,0.371 -2.725,0.717 -4.527,0.746 -1.803,0.024 -3.422,-0.274 -4.548,-0.612 -0.564,-0.168 -1.013,-0.328 -1.314,-0.462 -0.302,-0.129 -0.466,-0.207 -0.461,-0.22 0.015,-0.037 0.685,0.243 1.814,0.539 1.126,0.298 2.726,0.569 4.506,0.546 1.779,-0.029 3.37,-0.347 4.487,-0.679 1.118,-0.329 1.781,-0.628 1.797,-0.592 z"
   id="path58" />
			</g>
			<g
   id="g59">
				<path
   style="fill:#455a64"
   d="m 231.264,426.858 c 0,0 -0.149,0.201 -0.542,0.399 -0.39,0.204 -1.01,0.348 -1.772,0.463 -0.764,0.115 -1.688,0.183 -2.712,0.138 -0.512,-0.025 -1.046,-0.075 -1.6,-0.164 -0.274,-0.059 -0.598,-0.133 -0.794,-0.436 -0.196,-0.329 0.033,-0.73 0.321,-0.868 0.296,-0.155 0.598,-0.164 0.88,-0.207 0.287,-0.034 0.571,-0.055 0.85,-0.065 0.559,-0.02 1.099,0.009 1.609,0.073 0.255,0.032 0.502,0.072 0.74,0.12 0.246,0.058 0.5,0.145 0.649,0.39 0.161,0.288 -0.127,0.58 -0.348,0.595 -0.226,0.052 -0.434,0.022 -0.623,0.016 -0.662,-0.037 -1.264,-0.071 -1.82,-0.102 -0.43,-0.029 -0.667,-0.051 -0.666,-0.066 0.001,-0.014 0.239,-0.019 0.669,-0.015 0.557,0.011 1.159,0.023 1.822,0.036 0.194,0.002 0.394,0.024 0.579,-0.025 0.189,-0.032 0.321,-0.204 0.233,-0.358 -0.214,-0.319 -0.779,-0.325 -1.259,-0.4 -0.501,-0.057 -1.031,-0.081 -1.579,-0.059 -0.531,0.041 -1.153,0.043 -1.638,0.25 -0.227,0.117 -0.364,0.387 -0.241,0.583 0.117,0.196 0.399,0.29 0.651,0.339 0.538,0.09 1.069,0.144 1.573,0.173 1.01,0.055 1.923,0.003 2.682,-0.092 0.76,-0.096 1.37,-0.215 1.758,-0.391 0.393,-0.171 0.565,-0.344 0.578,-0.327 z"
   id="path59" />
			</g>
			<g
   id="g60">
				<path
   style="fill:#455a64"
   d="m 220.22,451.744 c -0.007,-0.001 0.002,-0.084 0.025,-0.24 0.035,-0.212 0.072,-0.436 0.113,-0.681 0.125,-0.708 0.272,-1.538 0.441,-2.497 0.373,-2.108 0.875,-5.023 1.379,-8.25 0.504,-3.228 0.915,-6.157 1.202,-8.279 0.131,-0.965 0.245,-1.8 0.341,-2.513 0.036,-0.245 0.069,-0.47 0.1,-0.682 0.025,-0.156 0.042,-0.237 0.049,-0.236 0.007,0.001 0.004,0.084 -0.007,0.241 -0.019,0.214 -0.039,0.44 -0.061,0.687 -0.078,0.715 -0.17,1.553 -0.276,2.522 -0.25,2.127 -0.638,5.062 -1.142,8.292 -0.505,3.229 -1.03,6.142 -1.44,8.244 -0.194,0.954 -0.363,1.781 -0.506,2.486 -0.054,0.242 -0.104,0.464 -0.151,0.673 -0.037,0.154 -0.06,0.234 -0.067,0.233 z"
   id="path60" />
			</g>
			<g
   id="g61">
				<path
   style="fill:#455a64"
   d="m 233.243,433.733 c -0.012,0.024 -0.283,-0.214 -0.882,-0.354 -0.587,-0.136 -1.533,-0.112 -2.485,0.434 -0.958,0.541 -1.806,1.58 -2.559,2.824 -0.773,1.238 -1.52,2.663 -2.197,4.207 -1.354,3.092 -2.202,6.041 -2.815,8.167 -0.275,0.974 -0.512,1.814 -0.713,2.525 -0.072,0.248 -0.138,0.473 -0.2,0.685 -0.048,0.156 -0.076,0.237 -0.083,0.235 -0.007,-0.002 0.008,-0.086 0.043,-0.246 0.05,-0.215 0.103,-0.444 0.162,-0.695 0.183,-0.716 0.399,-1.562 0.649,-2.543 0.578,-2.137 1.405,-5.101 2.766,-8.211 0.681,-1.552 1.438,-2.984 2.225,-4.226 0.765,-1.246 1.648,-2.308 2.648,-2.851 0.998,-0.55 1.978,-0.549 2.577,-0.384 0.613,0.17 0.864,0.433 0.864,0.433 z"
   id="path61" />
			</g>
			<g
   id="g62">
				<path
   style="fill:#455a64"
   d="m 228.988,455.375 c 0,0 0.232,0.119 0.382,0.552 0.134,0.4 0.124,1.218 -0.599,1.752 -0.708,0.501 -2.037,0.359 -2.787,-0.639 -0.776,-0.986 -0.817,-2.505 -0.447,-3.952 0.184,-0.731 0.343,-1.503 0.653,-2.278 0.304,-0.761 0.878,-1.539 1.771,-1.83 0.44,-0.143 0.943,-0.109 1.376,0.085 0.438,0.191 0.805,0.514 1.117,0.875 0.621,0.736 1.047,1.63 1.399,2.565 0.677,1.885 0.827,4.072 0.316,6.197 -0.516,2.102 -1.649,4.227 -3.563,5.589 -0.944,0.654 -2.16,1.064 -3.294,0.73 -1.132,-0.327 -1.93,-1.289 -2.333,-2.3 -0.414,-1.034 -0.445,-2.14 -0.376,-3.179 0.079,-1.045 0.228,-2.052 0.374,-3.037 0.59,-3.936 1.682,-7.414 3.167,-10.045 1.47,-2.644 3.239,-4.405 4.572,-5.423 1.343,-1.025 2.215,-1.382 2.215,-1.382 0,0 -0.197,0.125 -0.58,0.344 -0.372,0.237 -0.931,0.576 -1.584,1.102 -1.311,1.032 -3.05,2.796 -4.493,5.43 -1.458,2.622 -2.529,6.08 -3.107,10.003 -0.143,0.98 -0.29,1.991 -0.366,3.021 -0.067,1.025 -0.031,2.103 0.366,3.09 0.388,0.972 1.152,1.878 2.201,2.177 1.052,0.31 2.203,-0.068 3.12,-0.703 1.852,-1.314 2.977,-3.405 3.483,-5.464 0.504,-2.085 0.36,-4.234 -0.299,-6.085 -0.342,-0.916 -0.763,-1.802 -1.358,-2.51 -0.57,-0.71 -1.471,-1.197 -2.303,-0.915 -0.822,0.264 -1.376,0.989 -1.674,1.727 -0.305,0.748 -0.471,1.526 -0.658,2.249 -0.374,1.432 -0.338,2.897 0.397,3.848 0.703,0.958 1.975,1.107 2.65,0.642 0.689,-0.49 0.723,-1.281 0.603,-1.672 -0.131,-0.423 -0.36,-0.553 -0.341,-0.564 z"
   id="path62" />
			</g>
		</g>
		<g
   id="g69">
			<path
   style="fill:#263238"
   d="m 508.587,467.676 c -4.418,1.339 -8.657,1.48 -12.656,0 v -39.822 c 4.587,-2.278 8.776,-2.094 12.656,0 z"
   id="path63" />
			<g
   id="g64">
				<path
   style="fill:#455a64"
   d="m 508.606,427.874 c 0.006,0.013 -0.153,0.094 -0.447,0.23 -0.292,0.14 -0.728,0.311 -1.278,0.492 -1.097,0.365 -2.68,0.706 -4.453,0.735 -1.774,0.023 -3.366,-0.27 -4.473,-0.602 -0.555,-0.165 -0.997,-0.323 -1.292,-0.454 -0.297,-0.127 -0.459,-0.204 -0.453,-0.217 0.014,-0.037 0.674,0.238 1.784,0.529 1.108,0.293 2.681,0.559 4.431,0.536 1.75,-0.029 3.314,-0.341 4.413,-0.667 1.101,-0.324 1.752,-0.619 1.768,-0.582 z"
   id="path64" />
			</g>
			<g
   id="g65">
				<path
   style="fill:#455a64"
   d="m 506.445,427.549 c 0,0 -0.146,0.198 -0.532,0.393 -0.384,0.201 -0.993,0.343 -1.743,0.456 -0.752,0.113 -1.66,0.18 -2.667,0.136 -0.504,-0.024 -1.028,-0.073 -1.574,-0.162 -0.269,-0.058 -0.588,-0.131 -0.782,-0.43 -0.193,-0.324 0.032,-0.72 0.316,-0.857 0.292,-0.153 0.589,-0.162 0.866,-0.203 0.282,-0.033 0.562,-0.054 0.837,-0.063 0.55,-0.019 1.081,0.009 1.582,0.072 0.251,0.031 0.494,0.071 0.728,0.118 0.242,0.057 0.492,0.143 0.639,0.385 0.159,0.284 -0.126,0.573 -0.343,0.587 -0.223,0.052 -0.428,0.021 -0.614,0.016 -0.649,-0.037 -1.241,-0.07 -1.79,-0.101 -0.422,-0.029 -0.656,-0.051 -0.655,-0.065 0,-0.014 0.235,-0.019 0.658,-0.016 0.549,0.011 1.142,0.022 1.792,0.035 0.191,0.002 0.388,0.023 0.57,-0.024 0.186,-0.032 0.314,-0.199 0.228,-0.35 -0.21,-0.313 -0.765,-0.319 -1.237,-0.393 -0.492,-0.057 -1.014,-0.08 -1.552,-0.058 -0.522,0.04 -1.134,0.043 -1.61,0.246 -0.222,0.115 -0.357,0.379 -0.237,0.571 0.115,0.192 0.391,0.284 0.639,0.332 0.529,0.088 1.052,0.142 1.547,0.171 0.993,0.054 1.891,0.003 2.638,-0.09 0.748,-0.094 1.348,-0.211 1.729,-0.384 0.384,-0.169 0.554,-0.338 0.567,-0.322 z"
   id="path65" />
			</g>
			<g
   id="g66">
				<path
   style="fill:#455a64"
   d="m 495.583,452.024 c -0.007,-10e-4 0.002,-0.083 0.025,-0.236 0.035,-0.209 0.071,-0.429 0.111,-0.669 0.123,-0.699 0.267,-1.515 0.433,-2.456 0.367,-2.073 0.86,-4.94 1.356,-8.114 0.495,-3.175 0.9,-6.055 1.183,-8.142 0.129,-0.947 0.241,-1.768 0.336,-2.471 0.035,-0.241 0.068,-0.462 0.099,-0.671 0.025,-0.153 0.041,-0.233 0.048,-0.232 0.007,10e-4 0.005,0.082 -0.007,0.237 -0.019,0.211 -0.038,0.433 -0.06,0.676 -0.077,0.706 -0.167,1.53 -0.271,2.48 -0.246,2.092 -0.627,4.978 -1.123,8.156 -0.496,3.176 -1.013,6.041 -1.417,8.108 -0.191,0.936 -0.356,1.749 -0.498,2.445 -0.053,0.237 -0.103,0.455 -0.149,0.662 -0.036,0.15 -0.059,0.229 -0.066,0.227 z"
   id="path66" />
			</g>
			<g
   id="g67">
				<path
   style="fill:#455a64"
   d="m 508.391,434.311 c -0.012,0.024 -0.278,-0.21 -0.867,-0.347 -0.577,-0.134 -1.508,-0.11 -2.444,0.427 -0.941,0.532 -1.776,1.553 -2.516,2.778 -0.76,1.218 -1.495,2.619 -2.161,4.138 -1.331,3.041 -2.165,5.941 -2.769,8.032 -0.27,0.956 -0.503,1.781 -0.701,2.483 -0.071,0.243 -0.136,0.465 -0.197,0.674 -0.047,0.153 -0.075,0.233 -0.082,0.231 -0.007,-0.002 0.008,-0.085 0.042,-0.242 0.049,-0.212 0.102,-0.437 0.159,-0.684 0.18,-0.707 0.392,-1.539 0.638,-2.502 0.568,-2.102 1.381,-5.017 2.72,-8.076 0.669,-1.527 1.414,-2.935 2.189,-4.156 0.753,-1.226 1.621,-2.27 2.605,-2.804 0.982,-0.541 1.946,-0.54 2.535,-0.377 0.602,0.166 0.849,0.425 0.849,0.425 z"
   id="path67" />
			</g>
			<g
   id="g68">
				<path
   style="fill:#455a64"
   d="m 504.206,455.595 c 0,0 0.228,0.117 0.376,0.543 0.132,0.393 0.122,1.198 -0.589,1.723 -0.696,0.493 -2.005,0.353 -2.742,-0.629 -0.764,-0.97 -0.803,-2.465 -0.44,-3.888 0.181,-0.719 0.337,-1.478 0.642,-2.241 0.299,-0.749 0.864,-1.514 1.742,-1.801 0.433,-0.141 0.928,-0.107 1.355,0.083 0.431,0.188 0.792,0.505 1.099,0.861 0.611,0.724 1.03,1.604 1.377,2.523 0.666,1.855 0.814,4.005 0.311,6.095 -0.507,2.068 -1.622,4.157 -3.505,5.497 -0.929,0.643 -2.125,1.046 -3.242,0.718 -1.114,-0.322 -1.899,-1.268 -2.296,-2.263 -0.407,-1.017 -0.437,-2.106 -0.37,-3.128 0.078,-1.028 0.225,-2.018 0.368,-2.987 0.581,-3.871 1.655,-7.291 3.116,-9.88 1.446,-2.601 3.186,-4.332 4.497,-5.333 1.321,-1.008 2.178,-1.359 2.178,-1.359 0,0 -0.194,0.123 -0.571,0.339 -0.366,0.233 -0.915,0.566 -1.558,1.084 -1.289,1.016 -3,2.75 -4.419,5.341 -1.434,2.579 -2.486,5.98 -3.055,9.837 -0.14,0.964 -0.285,1.958 -0.36,2.971 -0.066,1.008 -0.03,2.068 0.36,3.038 0.381,0.955 1.132,1.846 2.164,2.141 1.034,0.305 2.166,-0.067 3.067,-0.691 1.821,-1.292 2.928,-3.348 3.424,-5.373 0.496,-2.05 0.354,-4.163 -0.294,-5.983 -0.336,-0.901 -0.751,-1.773 -1.335,-2.469 -0.56,-0.698 -1.446,-1.176 -2.263,-0.899 -0.808,0.259 -1.353,0.972 -1.645,1.698 -0.3,0.735 -0.464,1.501 -0.647,2.212 -0.368,1.408 -0.332,2.848 0.39,3.784 0.691,0.942 1.941,1.089 2.605,0.632 0.677,-0.482 0.711,-1.259 0.593,-1.643 -0.126,-0.413 -0.351,-0.542 -0.333,-0.553 z"
   id="path68" />
			</g>
		</g>
		<polygon
   style="fill:#263238"
   points="474.052,400.987 474.052,404.392 464.246,403.298 "
   id="polygon69" />
		<polygon
   style="fill:#263238"
   points="492.561,428.517 492.561,433.04 483.196,433.841 "
   id="polygon70" />
		<polygon
   style="fill:#263238"
   points="289.462,350.292 289.462,353.233 293.93,352.422 "
   id="polygon71" />
		<polygon
   style="fill:#263238"
   points="287.858,353.524 287.858,356.154 290.702,355.013 "
   id="polygon72" />
	</g>
</g>
<g
   id="Seagull"
   style="display:inline"
   transform="translate(-200.46851,-79.564148)">
	<g
   id="g99">
		<g
   id="g97">
			<g
   id="g73">
				<path
   style="fill:#263238"
   d="m 526.258,403.093 c 6.501,0.025 12.997,-1.849 18.487,-5.33 -1.192,0.427 -2.481,0.579 -3.74,0.441 1.689,-0.503 3.182,-1.635 4.122,-3.125 -5.772,1.037 -11.65,1.484 -17.512,1.331"
   id="path72" />
			</g>
			<g
   id="g76">
				<g
   id="g74">
					<path
   style="fill:#eb996e"
   d="m 499.962,411.433 0.094,14.185 -7.491,2.634 c 0,0 2.527,0.66 2.167,1.955 0,0 2.273,-0.569 2.84,1.396 l 3.785,-4.517 -0.103,-15.662 z"
   id="path73" />
				</g>
				<g
   id="g75">
					<path
   style="fill:#eb996e"
   d="m 502.378,417.979 c 0.047,0.733 -0.671,1.375 -1.604,1.435 -0.933,0.059 -1.727,-0.487 -1.773,-1.22 -0.047,-0.733 0.672,-1.375 1.604,-1.435 0.933,-0.059 1.727,0.487 1.773,1.22 z"
   id="path74" />
				</g>
			</g>
			<g
   id="g79">
				<g
   id="g77">
					<path
   style="fill:#eb996e"
   d="m 507.018,411.387 0.094,14.185 -7.491,2.634 c 0,0 2.527,0.66 2.167,1.955 0,0 2.273,-0.569 2.84,1.397 l 3.785,-4.517 -0.103,-15.662 z"
   id="path76" />
				</g>
				<g
   id="g78">
					<path
   style="fill:#eb996e"
   d="m 509.434,417.933 c 0.047,0.733 -0.672,1.375 -1.604,1.435 -0.933,0.059 -1.727,-0.487 -1.773,-1.22 -0.047,-0.733 0.672,-1.375 1.604,-1.435 0.932,-0.059 1.726,0.487 1.773,1.22 z"
   id="path77" />
				</g>
			</g>
			<g
   id="g83">
				<g
   id="g80">
					<path
   style="fill:#fafafa"
   d="m 481.238,375.77 c 0,0 2.844,-0.846 3.793,-1.929 0.949,-1.083 4.035,-4.691 8.107,-3.761 4.072,0.93 6.963,4.02 6.864,7.13 -0.099,3.11 0.049,6.936 0.049,6.936 l 33.323,12.336 c 0,0 -10.43,14.18 -23.222,14.743 0,0 -1.184,1.802 -2.56,1.691 -1.376,-0.111 -2.941,-1.655 -2.941,-1.655 0,0 -9.2,1.257 -15.325,-2.649 -6.125,-3.906 -11.417,-8.535 -11.111,-16.43 0.307,-7.895 7.208,-13.202 7.208,-13.202 z"
   id="path79" />
				</g>
				<g
   id="g82">
					<g
   id="g81">
						<path
   style="fill:#263238"
   d="m 481.238,375.77 c 0.416,0.309 1.611,1.198 4.234,3.149 l 0.079,0.059 -0.079,0.066 c -1.635,1.38 -3.637,3.465 -5.239,6.461 -0.786,1.498 -1.446,3.24 -1.729,5.187 -0.28,1.94 -0.179,4.086 0.444,6.206 0.6,2.133 1.841,4.174 3.483,5.981 1.654,1.807 3.694,3.387 5.911,4.863 1.111,0.749 2.265,1.426 3.535,1.944 1.276,0.499 2.628,0.86 4.022,1.116 2.789,0.491 5.757,0.574 8.724,0.25 l 0.102,-0.011 0.077,0.071 c 0.734,0.671 1.635,1.366 2.639,1.567 0.991,0.176 1.92,-0.719 2.53,-1.571 l 0.066,-0.092 0.107,-0.006 c 4.969,-0.295 9.846,-2.546 14.033,-5.747 3.457,-2.602 6.49,-5.659 9.022,-8.908 l 0.101,0.336 c -12.464,-4.631 -23.859,-8.866 -33.308,-12.377 l -0.111,-0.041 -0.004,-0.117 c -0.076,-2.394 -0.102,-4.678 -0.036,-6.847 0.043,-1.055 -0.248,-2.07 -0.741,-2.938 -0.497,-0.867 -1.162,-1.599 -1.893,-2.193 -1.471,-1.181 -3.183,-1.853 -4.777,-2.088 -1.617,-0.168 -3.098,0.349 -4.228,1.061 -1.152,0.701 -2.023,1.553 -2.733,2.317 -0.649,0.848 -1.507,1.27 -2.151,1.564 -0.66,0.298 -1.184,0.475 -1.537,0.59 -0.355,0.111 -0.543,0.148 -0.543,0.148 0,0 0.177,-0.071 0.525,-0.2 0.346,-0.131 0.862,-0.324 1.51,-0.635 0.643,-0.317 1.447,-0.72 2.081,-1.573 0.704,-0.781 1.573,-1.655 2.741,-2.384 1.145,-0.738 2.671,-1.294 4.359,-1.133 1.658,0.231 3.398,0.9 4.929,2.109 0.758,0.608 1.453,1.361 1.978,2.264 0.521,0.9 0.838,1.984 0.798,3.096 -0.054,2.157 -0.017,4.44 0.068,6.824 l -0.115,-0.158 c 9.457,3.488 20.863,7.695 33.338,12.296 l 0.281,0.104 -0.181,0.232 c -2.568,3.302 -5.61,6.368 -9.109,9.004 -4.23,3.234 -9.187,5.531 -14.281,5.827 l 0.173,-0.098 c -0.347,0.495 -0.746,0.925 -1.231,1.281 -0.472,0.345 -1.113,0.604 -1.734,0.476 -1.19,-0.252 -2.074,-0.973 -2.868,-1.689 l 0.179,0.059 c -3.034,0.326 -6.014,0.234 -8.854,-0.27 -1.416,-0.264 -2.793,-0.635 -4.097,-1.149 -1.296,-0.531 -2.498,-1.242 -3.601,-1.993 -2.227,-1.493 -4.287,-3.097 -5.962,-4.943 -1.664,-1.844 -2.928,-3.943 -3.531,-6.13 -0.626,-2.178 -0.715,-4.359 -0.417,-6.339 0.302,-1.984 0.987,-3.75 1.796,-5.261 1.651,-3.023 3.685,-5.095 5.363,-6.469 v 0.125 c -1.357,-1.069 -2.397,-1.889 -3.115,-2.455 -0.331,-0.263 -0.588,-0.467 -0.775,-0.616 -0.172,-0.136 -0.255,-0.203 -0.248,-0.202 z"
   id="path80" />
					</g>
				</g>
			</g>
			<g
   id="g84">
				<path
   style="fill:#ebebeb"
   d="m 531.358,394.284 c -4.219,-5.174 -10.201,-8.884 -16.711,-10.362 -5.019,-1.14 -10.327,-0.943 -15.263,0.508 l 0.251,-0.095 c -3.115,0.439 -6.126,1.606 -8.724,3.38 -1.105,0.755 -2.235,1.82 -2.187,3.158 0.043,1.208 1.033,2.146 1.986,2.889 5.686,4.43 12.777,7.028 19.98,7.32 7.202,0.292 14.481,-1.723 20.507,-5.678 0.185,-0.121 0.385,-0.267 0.425,-0.485 0.043,-0.233 -0.114,-0.452 -0.264,-0.635 z"
   id="path83" />
			</g>
			<g
   id="g85">
				<path
   style="fill:#263238"
   d="m 491.323,375.175 c 0.004,0.587 -0.468,1.065 -1.055,1.069 -0.587,0.004 -1.065,-0.468 -1.069,-1.055 -0.004,-0.586 0.468,-1.065 1.055,-1.069 0.587,-0.004 1.066,0.469 1.069,1.055 z"
   id="path84" />
			</g>
			<g
   id="g87">
				<g
   id="g86">
					<path
   style="fill:#263238"
   d="m 517.843,391.673 c 0.011,0.017 -0.11,0.116 -0.356,0.269 -0.248,0.149 -0.627,0.346 -1.138,0.523 -1.007,0.352 -2.614,0.61 -4.395,0.063 l 0.113,-0.383 c 0.888,0.259 1.14,1.495 0.495,2.188 -0.63,0.686 -1.691,0.75 -2.514,0.442 -0.488,-0.169 -0.918,-0.413 -1.316,-0.636 l 0.294,-0.31 c 0.405,0.65 0.341,1.44 0.065,2.037 -0.273,0.611 -0.796,1.069 -1.347,1.293 -1.126,0.454 -2.226,0.233 -3.009,-0.072 -0.796,-0.316 -1.357,-0.701 -1.74,-0.96 -0.38,-0.265 -0.576,-0.427 -0.561,-0.45 0.015,-0.025 0.241,0.092 0.645,0.314 0.405,0.216 0.984,0.555 1.755,0.819 0.754,0.257 1.782,0.41 2.752,-0.01 0.478,-0.21 0.891,-0.59 1.118,-1.108 0.226,-0.508 0.256,-1.143 -0.052,-1.628 l -0.466,-0.732 0.76,0.422 c 0.397,0.221 0.809,0.45 1.244,0.6 0.734,0.277 1.584,0.186 2.049,-0.312 0.469,-0.456 0.252,-1.383 -0.277,-1.512 l 0.113,-0.383 c 1.667,0.55 3.207,0.366 4.202,0.089 1.011,-0.281 1.538,-0.613 1.566,-0.563 z"
   id="path85" />
				</g>
			</g>
			<g
   id="g89">
				<g
   id="g88">
					<path
   style="fill:#263238"
   d="m 530.145,395.816 c 0.007,0.007 -0.043,0.062 -0.146,0.162 -0.105,0.098 -0.256,0.25 -0.471,0.427 -0.428,0.355 -1.086,0.85 -2.007,1.348 -1.809,0.984 -4.826,2.005 -8.448,1.419 l 0.095,-0.364 c 0.763,0.264 1.505,0.766 2.054,1.472 l 0.19,0.245 -0.303,0.073 c -2.322,0.561 -5.042,0.628 -7.741,-0.08 l -1.281,-0.336 1.329,-0.098 c 0.348,-0.026 0.675,0.263 0.751,0.551 0.101,0.288 0.092,0.595 -0.023,0.883 -0.292,0.637 -0.979,0.743 -1.502,0.732 -6.92,-1.118 -12.76,-3.527 -16.804,-5.579 -2.018,-1.037 -3.598,-1.976 -4.659,-2.669 -0.538,-0.335 -0.936,-0.626 -1.212,-0.814 -0.273,-0.192 -0.412,-0.299 -0.403,-0.312 0.008,-0.013 0.164,0.069 0.452,0.237 0.328,0.194 0.743,0.439 1.253,0.741 1.086,0.646 2.683,1.539 4.709,2.536 2.025,0.997 4.5,2.056 7.319,3.033 2.811,0.943 6.021,1.877 9.358,2.383 0.45,0.028 0.959,-0.129 1.08,-0.46 0.16,-0.35 -0.021,-0.866 -0.302,-0.821 l 0.048,-0.434 c 2.622,0.694 5.269,0.643 7.536,0.116 l -0.113,0.318 c -0.493,-0.645 -1.167,-1.113 -1.861,-1.361 l 0.095,-0.364 c 3.506,0.607 6.472,-0.329 8.281,-1.242 1.841,-0.935 2.684,-1.798 2.726,-1.742 z"
   id="path87" />
				</g>
			</g>
			<g
   id="g91">
				<g
   id="g90">
					<path
   style="fill:#263238"
   d="m 491.705,373.388 c -0.16,0.095 -0.352,0.099 -0.517,0.112 -0.167,0.009 -0.312,0.012 -0.463,-0.021 -0.152,-0.028 -0.284,-0.089 -0.434,-0.163 -0.146,-0.077 -0.321,-0.156 -0.431,-0.306 -0.106,-0.144 -0.097,-0.374 0.113,-0.581 0.202,-0.206 0.604,-0.343 1.02,-0.256 0.416,0.084 0.732,0.368 0.837,0.637 0.112,0.272 0.03,0.487 -0.125,0.578 z"
   id="path89" />
				</g>
			</g>
			<g
   id="g92">
				<path
   style="fill:#e8505b"
   d="m 481.238,375.77 c 0,0 -8.35,-0.47 -9.6,6.986 l 1.224,-0.678 c 0.637,-0.353 1.342,-0.567 2.068,-0.629 l 8.724,-0.991 1.769,-1.476 c -0.593,-0.462 -4.185,-3.212 -4.185,-3.212 z"
   id="path91" />
			</g>
			<g
   id="g94">
				<g
   id="g93">
					<path
   style="fill:#263238"
   d="m 480.895,376.534 c 0.009,0.124 -0.476,0.258 -1.075,0.359 -0.599,0.099 -1.101,0.129 -1.133,0.01 -0.031,-0.117 0.438,-0.345 1.06,-0.448 0.622,-0.105 1.14,-0.043 1.148,0.079 z"
   id="path92" />
				</g>
			</g>
			<g
   id="g96">
				<g
   id="g95">
					<path
   style="fill:#263238"
   d="m 484.508,379.811 c 0.006,0.061 -0.742,0.189 -1.957,0.346 -1.214,0.157 -2.895,0.344 -4.754,0.523 -0.929,0.095 -1.821,0.15 -2.604,0.27 -0.786,0.117 -1.467,0.323 -1.991,0.599 -1.066,0.549 -1.424,1.266 -1.483,1.221 -0.053,-0.002 0.222,-0.826 1.329,-1.495 0.54,-0.333 1.265,-0.586 2.076,-0.729 0.814,-0.147 1.701,-0.213 2.63,-0.308 1.859,-0.179 3.544,-0.316 4.766,-0.393 1.224,-0.078 1.983,-0.095 1.988,-0.034 z"
   id="path94" />
				</g>
			</g>
		</g>
		<g
   id="g98">
			<path
   style="fill:#263238"
   d="m 531.622,394.919 c -0.029,0.027 -0.507,-0.453 -1.393,-1.294 -0.887,-0.84 -2.194,-2.029 -3.884,-3.412 -1.698,-1.374 -3.682,-3.071 -6.215,-4.424 -1.261,-0.677 -2.646,-1.276 -4.14,-1.697 -1.493,-0.423 -3.097,-0.647 -4.748,-0.725 -6.627,-0.155 -12.691,0.881 -16.654,2.668 -1.996,0.862 -3.476,1.837 -4.452,2.561 -0.974,0.732 -1.464,1.201 -1.494,1.168 -0.012,-0.013 0.099,-0.141 0.323,-0.375 0.226,-0.231 0.574,-0.559 1.046,-0.953 0.948,-0.781 2.419,-1.819 4.426,-2.738 4.002,-1.905 10.114,-3.01 16.829,-2.853 1.682,0.079 3.327,0.311 4.863,0.754 1.535,0.44 2.951,1.064 4.231,1.767 2.573,1.406 4.556,3.155 6.222,4.563 1.666,1.426 2.944,2.663 3.79,3.551 0.423,0.445 0.741,0.798 0.951,1.044 0.209,0.248 0.312,0.383 0.299,0.395 z"
   id="path97" />
		</g>
	</g>
</g>




<g
   id="Character"
   style="display:inline"
   transform="translate(-200.88167,-91.545921)">
	<g
   id="g309">
		<g
   id="g167">
			<g
   id="g166">
				<g
   id="g154">
					<g
   id="g153">
						<g
   id="g152">
							<polygon
   style="fill:#e8505b"
   points="388.492,344.084 389.483,367.452 402.101,367.169 401.156,343.754 "
   id="polygon151" />
						</g>
					</g>
				</g>
				<g
   id="g158">
					<g
   id="g157">
						<g
   id="g156">
							<g
   id="g155">
								<path
   style="fill:#263238"
   d="m 395.679,366.431 c 0.105,-0.006 -0.09,-5.123 -0.437,-11.428 -0.347,-6.307 -0.713,-11.414 -0.819,-11.408 -0.105,0.006 0.091,5.122 0.437,11.429 0.347,6.305 0.713,11.412 0.819,11.407 z"
   id="path154" />
							</g>
						</g>
					</g>
				</g>
				<g
   id="g161">
					<g
   id="g160">
						<g
   id="g159">
							<polygon
   style="fill:#263238"
   points="389.415,365.84 402.034,365.516 402.101,367.169 389.483,367.452 "
   id="polygon158" />
						</g>
					</g>
				</g>
				<g
   id="g165">
					<g
   id="g164">
						<g
   id="g163">
							<g
   id="g162">
								<path
   style="fill:#263238"
   d="m 401.799,359.686 c 0.018,-0.015 -0.098,-0.197 -0.346,-0.495 -0.248,-0.299 -0.639,-0.707 -1.18,-1.149 -0.541,-0.439 -1.239,-0.912 -2.099,-1.271 -0.853,-0.366 -1.883,-0.604 -2.969,-0.544 -2.18,0.105 -3.963,1.258 -4.816,2.364 -0.444,0.547 -0.71,1.054 -0.859,1.414 -0.145,0.362 -0.196,0.572 -0.174,0.58 0.071,0.035 0.336,-0.805 1.237,-1.818 0.871,-1.015 2.565,-2.057 4.634,-2.159 2.061,-0.108 3.809,0.855 4.881,1.647 1.094,0.81 1.64,1.477 1.691,1.431 z"
   id="path161" />
							</g>
						</g>
					</g>
				</g>
			</g>
			<polygon
   style="opacity:0.3"
   points="388.797,353.524 389.08,356.728 401.634,355.603 401.55,353.524 "
   id="polygon166" />
		</g>
		<g
   id="g203">
			<g
   id="g199">
				<g
   id="g194">
					<g
   id="g170">
						<g
   id="g169">
							<g
   id="g168">
								<path
   style="fill:#e8505b"
   d="m 340.07,346.833 0.538,14.028 c 0,0 -14.008,4.967 -14.16,7.569 l 27.167,0.225 0.058,-21.892 z"
   id="path167" />
							</g>
						</g>
					</g>
					<g
   id="g174">
						<g
   id="g173">
							<g
   id="g172">
								<g
   id="g171">
									<path
   style="fill:#e0e0e0"
   d="m 348.846,359.711 c 0.531,0.144 0.9,0.74 0.778,1.276 -0.122,0.537 -0.725,0.917 -1.259,0.782 -0.534,-0.134 -0.998,-0.836 -0.816,-1.356 0.181,-0.52 0.913,-0.927 1.399,-0.668"
   id="path170" />
								</g>
							</g>
						</g>
					</g>
					<g
   id="g177">
						<g
   id="g176">
							<g
   id="g175">
								<path
   style="fill:#263238"
   d="m 353.615,368.653 0.005,-1.744 -26.372,0.312 c 0,0 -0.865,0.534 -0.936,1.354 z"
   id="path174" />
							</g>
						</g>
					</g>
					<g
   id="g181">
						<g
   id="g180">
							<g
   id="g179">
								<g
   id="g178">
									<path
   style="fill:#263238"
   d="m 340.361,360.95 c 0.005,0.134 0.675,0.193 1.335,0.622 0.671,0.412 1.013,0.991 1.135,0.938 0.124,-0.026 -0.078,-0.827 -0.887,-1.332 -0.803,-0.512 -1.612,-0.35 -1.583,-0.228 z"
   id="path177" />
								</g>
							</g>
						</g>
					</g>
					<g
   id="g185">
						<g
   id="g184">
							<g
   id="g183">
								<g
   id="g182">
									<path
   style="fill:#263238"
   d="m 337.487,362.147 c -0.03,0.13 0.551,0.356 1.007,0.922 0.473,0.552 0.589,1.164 0.723,1.158 0.126,0.021 0.217,-0.764 -0.364,-1.456 -0.576,-0.697 -1.364,-0.751 -1.366,-0.624 z"
   id="path181" />
								</g>
							</g>
						</g>
					</g>
					<g
   id="g189">
						<g
   id="g188">
							<g
   id="g187">
								<g
   id="g186">
									<path
   style="fill:#263238"
   d="m 335.861,365.595 c 0.122,0.028 0.307,-0.642 -0.039,-1.374 -0.341,-0.735 -0.973,-1.023 -1.029,-0.911 -0.075,0.11 0.332,0.503 0.607,1.109 0.288,0.599 0.328,1.163 0.461,1.176 z"
   id="path185" />
								</g>
							</g>
						</g>
					</g>
					<g
   id="g193">
						<g
   id="g192">
							<g
   id="g191">
								<g
   id="g190">
									<path
   style="fill:#263238"
   d="m 340.594,357.717 c 0.057,0.122 0.671,-0.064 1.428,-0.015 0.758,0.034 1.348,0.287 1.418,0.172 0.077,-0.097 -0.499,-0.591 -1.392,-0.637 -0.892,-0.053 -1.519,0.375 -1.454,0.48 z"
   id="path189" />
								</g>
							</g>
						</g>
					</g>
				</g>
				<g
   id="g198">
					<g
   id="g197">
						<g
   id="g196">
							<g
   id="g195">
								<path
   style="fill:#263238"
   d="m 340.099,354.695 c -10e-4,0.055 0.528,0.137 1.374,-0.01 0.421,-0.074 0.917,-0.213 1.436,-0.445 0.26,-0.117 0.525,-0.256 0.788,-0.421 0.126,-0.082 0.276,-0.164 0.414,-0.324 0.148,-0.14 0.232,-0.495 0.06,-0.713 -0.141,-0.21 -0.389,-0.301 -0.588,-0.305 -0.202,-0.006 -0.366,0.035 -0.515,0.072 -0.305,0.075 -0.591,0.177 -0.853,0.295 -0.524,0.24 -0.949,0.542 -1.265,0.835 -0.635,0.591 -0.851,1.092 -0.805,1.118 0.061,0.044 0.369,-0.376 1.016,-0.864 0.322,-0.243 0.734,-0.494 1.224,-0.693 0.245,-0.098 0.509,-0.183 0.788,-0.245 0.29,-0.077 0.538,-0.079 0.612,0.049 0.027,0.049 0.031,0.069 -0.03,0.154 -0.063,0.078 -0.18,0.155 -0.305,0.237 -0.242,0.159 -0.486,0.297 -0.725,0.417 -0.478,0.239 -0.935,0.402 -1.327,0.512 -0.785,0.221 -1.302,0.259 -1.299,0.331 z"
   id="path194" />
							</g>
						</g>
					</g>
				</g>
			</g>
			<g
   style="opacity:0.3"
   id="g202">
				<g
   id="g201">
					<g
   id="g200">
						<polygon
   points="353.685,355.172 353.642,358.284 340.507,358.22 340.521,355.397 "
   id="polygon199" />
					</g>
				</g>
			</g>
		</g>
		<g
   id="g211">
			<polygon
   style="fill:#ffbe9d"
   points="392.615,229.719 396.495,221.186 402.359,225.43 402.359,228.962 399.876,238.255 "
   id="polygon203" />
			<g
   id="g210">
				<path
   style="fill:#e8505b"
   d="m 403.78,151.226 c 0,0 3.693,4.025 4.104,8.342 0.411,4.317 6.784,42.966 6.784,42.966 0,0 -9.843,24.579 -12.309,26.429 l -7.474,-3.068 6.157,-26.409 -4.465,-17.921 z"
   id="path203" />
				<g
   id="g204">
					<path
   style="fill:#263238"
   d="m 413.063,204.581 c 0.061,0.118 -1.728,0.736 -3.896,0.151 -2.175,-0.561 -3.426,-1.981 -3.315,-2.053 0.1,-0.124 1.421,1.033 3.447,1.55 2.019,0.55 3.738,0.196 3.764,0.352 z"
   id="path204" />
				</g>
				<g
   id="g205">
					<path
   style="fill:#ffffff"
   d="m 412.083,183.893 c 0.021,0.041 -0.718,0.467 -1.905,1.165 -1.187,0.698 -2.817,1.678 -4.578,2.822 -1.761,1.145 -3.32,2.235 -4.44,3.036 -1.121,0.801 -1.81,1.303 -1.839,1.267 -0.013,-0.017 0.142,-0.164 0.435,-0.416 0.292,-0.252 0.726,-0.604 1.271,-1.028 1.089,-0.849 2.634,-1.972 4.402,-3.121 1.768,-1.148 3.422,-2.102 4.64,-2.752 0.609,-0.325 1.107,-0.579 1.456,-0.743 0.35,-0.167 0.548,-0.249 0.558,-0.23 z"
   id="path205" />
				</g>
				<g
   id="g206">
					<path
   style="fill:#ffffff"
   d="m 408.998,170.605 c 0.017,0.047 -0.677,0.321 -1.765,0.831 -1.088,0.508 -2.56,1.278 -4.089,2.284 -1.527,1.01 -2.813,2.061 -3.709,2.862 -0.896,0.8 -1.422,1.33 -1.458,1.296 -0.016,-0.015 0.098,-0.163 0.319,-0.42 0.219,-0.258 0.555,-0.614 0.988,-1.038 0.863,-0.848 2.143,-1.939 3.687,-2.961 1.546,-1.018 3.052,-1.765 4.171,-2.225 0.559,-0.231 1.019,-0.401 1.343,-0.5 0.324,-0.103 0.505,-0.15 0.513,-0.129 z"
   id="path206" />
				</g>
				<g
   id="g207">
					<path
   style="fill:#ffffff"
   d="m 407.405,159.211 c 0.018,0.1 -1.827,0.245 -3.8,1.28 -1.987,1.01 -3.173,2.431 -3.244,2.358 -0.028,-0.023 0.227,-0.407 0.753,-0.935 0.523,-0.527 1.336,-1.176 2.348,-1.701 1.013,-0.521 2.013,-0.809 2.746,-0.93 0.733,-0.122 1.194,-0.108 1.197,-0.072 z"
   id="path207" />
				</g>
				<g
   id="g208">
					<path
   style="fill:#ffffff"
   d="m 413.171,201.965 c -0.027,0.047 -0.634,-0.293 -1.67,-0.699 -1.034,-0.408 -2.52,-0.84 -4.209,-1.001 -1.69,-0.155 -3.23,-0.007 -4.322,0.202 -1.094,0.207 -1.753,0.428 -1.771,0.377 -0.007,-0.02 0.151,-0.093 0.445,-0.207 0.293,-0.119 0.73,-0.253 1.28,-0.386 1.097,-0.268 2.67,-0.456 4.397,-0.297 1.725,0.164 3.237,0.641 4.264,1.108 0.515,0.232 0.92,0.446 1.186,0.617 0.269,0.167 0.411,0.267 0.4,0.286 z"
   id="path208" />
				</g>
				<g
   id="g209">
					<path
   style="fill:#ffffff"
   d="m 406.762,216.501 c -0.049,0.021 -0.309,-0.572 -0.848,-1.457 -0.536,-0.885 -1.392,-2.042 -2.548,-3.116 -1.161,-1.07 -2.381,-1.833 -3.305,-2.299 -0.924,-0.469 -1.535,-0.682 -1.518,-0.732 0.007,-0.021 0.165,0.014 0.448,0.096 0.284,0.077 0.684,0.224 1.166,0.437 0.964,0.422 2.234,1.174 3.422,2.269 1.184,1.099 2.032,2.307 2.527,3.235 0.249,0.464 0.428,0.851 0.526,1.128 0.103,0.275 0.15,0.431 0.13,0.439 z"
   id="path209" />
				</g>
			</g>
		</g>
		<g
   id="g222">
			<path
   style="fill:#ffbe9d"
   d="m 342.137,226.069 c 0.092,0.367 3.74,9.83 3.74,9.83 l 5.998,-2.572 0.459,-7.897 -2.429,-4.243 z"
   id="path211" />
			<g
   id="g219">
				<path
   style="fill:#e8505b"
   d="m 362.921,138.358 c -0.903,0 -15.125,6.547 -17.608,8.127 -2.483,1.58 -16.479,52.598 -16.479,55.307 0,2.709 13.294,25.777 13.294,25.777 0,0 7.128,-3.234 8.03,-3.912 0.903,-0.677 -6.265,-23.568 -6.265,-23.568 l 5.935,-21.775 z"
   id="path212" />
				<g
   id="g213">
					<path
   style="fill:#263238"
   d="m 341.636,201.968 c 0.044,0.036 -0.299,0.562 -1.078,1.2 -0.772,0.638 -2.02,1.331 -3.531,1.655 -1.512,0.318 -2.935,0.192 -3.899,-0.077 -0.971,-0.266 -1.498,-0.607 -1.472,-0.658 0.033,-0.079 0.604,0.135 1.551,0.298 0.945,0.167 2.283,0.227 3.713,-0.073 1.428,-0.307 2.626,-0.906 3.421,-1.443 0.798,-0.533 1.232,-0.961 1.295,-0.902 z"
   id="path213" />
				</g>
				<g
   id="g214">
					<path
   style="fill:#ffffff"
   d="m 347.456,213.887 c 0.012,0.054 -0.643,0.206 -1.641,0.605 -0.998,0.395 -2.325,1.085 -3.597,2.117 -1.268,1.037 -2.212,2.197 -2.802,3.094 -0.593,0.897 -0.875,1.507 -0.924,1.484 -0.02,-0.009 0.035,-0.168 0.15,-0.451 0.111,-0.285 0.31,-0.68 0.587,-1.151 0.551,-0.943 1.492,-2.157 2.792,-3.218 1.303,-1.057 2.682,-1.733 3.717,-2.081 0.517,-0.176 0.945,-0.291 1.247,-0.342 0.299,-0.057 0.467,-0.078 0.471,-0.057 z"
   id="path214" />
				</g>
				<g
   id="g215">
					<path
   style="fill:#ffffff"
   d="m 342.992,205.695 c 0.023,0.025 -0.425,0.48 -1.27,1.066 -0.841,0.587 -2.103,1.274 -3.604,1.748 -1.503,0.47 -2.931,0.628 -3.957,0.627 -1.028,0.002 -1.656,-0.115 -1.652,-0.148 0.004,-0.052 0.634,-0.014 1.644,-0.072 1.009,-0.056 2.4,-0.245 3.871,-0.705 1.469,-0.464 2.718,-1.104 3.577,-1.635 0.863,-0.53 1.358,-0.922 1.391,-0.881 z"
   id="path215" />
				</g>
				<g
   id="g216">
					<path
   style="fill:#ffffff"
   d="m 344.059,194.997 c -0.019,0.045 -0.681,-0.216 -1.767,-0.583 -1.085,-0.368 -2.602,-0.82 -4.313,-1.171 -1.712,-0.348 -3.285,-0.528 -4.427,-0.615 -1.142,-0.089 -1.854,-0.109 -1.854,-0.158 -10e-4,-0.038 0.712,-0.096 1.866,-0.063 1.153,0.032 2.748,0.178 4.477,0.53 1.728,0.355 3.252,0.846 4.326,1.27 1.075,0.423 1.708,0.756 1.692,0.79 z"
   id="path216" />
				</g>
				<g
   id="g217">
					<path
   style="fill:#ffffff"
   d="m 346.917,184.469 c -0.047,0.033 -0.471,-0.581 -1.303,-1.435 -0.828,-0.855 -2.11,-1.912 -3.728,-2.739 -1.622,-0.821 -3.232,-1.235 -4.41,-1.4 -1.18,-0.17 -1.926,-0.151 -1.927,-0.208 -10e-4,-0.021 0.185,-0.041 0.523,-0.059 0.338,-0.024 0.829,-0.01 1.432,0.048 1.205,0.112 2.865,0.501 4.524,1.341 1.656,0.846 2.948,1.958 3.748,2.866 0.402,0.453 0.702,0.842 0.882,1.129 0.183,0.283 0.276,0.445 0.259,0.457 z"
   id="path217" />
				</g>
				<g
   id="g218">
					<path
   style="fill:#ffffff"
   d="m 346.12,166.631 c -0.063,0.081 -1.242,-1.216 -3.231,-1.815 -1.979,-0.634 -3.685,-0.235 -3.691,-0.337 -0.048,-0.063 1.708,-0.622 3.784,0.038 2.083,0.633 3.214,2.089 3.138,2.114 z"
   id="path218" />
				</g>
			</g>
			<g
   style="opacity:0.3"
   id="g220">
				<path
   d="m 348.914,181.861 c -1.022,-3.675 -2.047,-7.363 -2.575,-11.141 -0.528,-3.778 -0.546,-7.672 0.43,-11.36 1.558,7.227 1.713,14.673 1.862,22.064 -0.025,-0.212 -0.049,-0.424 -0.074,-0.636"
   id="path219" />
			</g>
			<g
   id="g221">
				<path
   style="fill:#ffffff"
   d="m 345.858,155.743 c -0.093,0.018 -0.263,-0.92 -0.937,-1.833 -0.659,-0.925 -1.498,-1.378 -1.451,-1.461 0.018,-0.078 0.989,0.28 1.704,1.277 0.726,0.99 0.764,2.024 0.684,2.017 z"
   id="path220" />
			</g>
		</g>
		<g
   id="g228">
			<g
   id="g225">
				<g
   id="g224">
					<path
   style="fill:#263238"
   d="m 345.877,223.366 -4.257,61.875 c 0,0 -3.297,24.905 -3.297,32.751 0,7.846 1.116,37.912 1.116,37.912 h 15.286 l 15.59,-106.981 c 0,0 1.569,-1.345 1.794,0 0.224,1.345 9.111,39.642 9.965,45.778 0.681,4.89 6.402,59.912 6.402,59.912 l 13.213,-0.566 c 0,0 1.241,-49.566 0.344,-65.483 l -2.35,-54.783 -3.21,-15.527 -43.196,-1.615 z"
   id="path222" />
					<g
   id="g223">
						<path
   style="fill:#455a64"
   d="m 387.002,245.05 c 0.021,0.142 -5.714,1.115 -12.808,2.173 -7.096,1.058 -12.865,1.8 -12.886,1.658 -0.021,-0.142 5.713,-1.115 12.809,-2.173 7.094,-1.058 12.864,-1.8 12.885,-1.658 z"
   id="path223" />
					</g>
				</g>
			</g>
			<g
   id="g226">
				<path
   style="fill:#455a64"
   d="m 355.988,291.004 c 0.07,0.136 -2.539,1.576 -5.582,3.618 -3.051,2.033 -5.378,3.893 -5.477,3.777 -0.09,-0.1 2.106,-2.156 5.187,-4.21 3.074,-2.062 5.814,-3.306 5.872,-3.185 z"
   id="path225" />
			</g>
			<g
   id="g227">
				<path
   style="fill:#455a64"
   d="m 398.938,290.54 c -0.027,0.164 -2.631,-0.436 -5.819,0.04 -3.195,0.438 -5.525,1.745 -5.597,1.595 -0.085,-0.092 2.209,-1.652 5.523,-2.11 3.308,-0.49 5.948,0.363 5.893,0.475 z"
   id="path226" />
			</g>
		</g>
		<g
   id="g279">
			<g
   id="g229">
				<path
   style="fill:#263238"
   d="m 379.208,139.386 c -0.004,0.035 -0.41,0.032 -1.144,-0.014 -0.733,-0.049 -1.795,-0.131 -3.098,-0.347 -1.297,-0.222 -2.856,-0.577 -4.451,-1.347 -1.577,-0.76 -3.23,-1.976 -4.276,-3.77 -1.06,-1.779 -1.465,-3.715 -1.75,-5.426 -0.267,-1.723 -0.43,-3.272 -0.651,-4.558 -0.404,-2.583 -1.118,-4.051 -1.033,-4.088 0.027,-0.014 0.233,0.339 0.527,1.018 0.283,0.683 0.605,1.709 0.868,3.002 0.27,1.292 0.471,2.846 0.762,4.546 0.307,1.687 0.721,3.557 1.723,5.237 0.985,1.69 2.53,2.849 4.042,3.608 1.524,0.765 3.035,1.15 4.306,1.416 2.56,0.49 4.187,0.63 4.175,0.723 z"
   id="path228" />
			</g>
			<g
   id="g278">
				<path
   style="fill:#263238"
   d="m 372.248,95.107 0.377,-0.096 c 1.138,-2.053 3.449,-3.335 5.793,-3.455 2.344,-0.12 4.677,0.841 6.436,2.396 1.222,1.08 2.185,2.427 3.412,3.501 1.227,1.074 2.859,1.881 4.455,1.546 0.195,0.594 -0.915,0.946 -0.847,1.568 0.033,0.297 0.338,0.491 0.63,0.549 0.429,0.086 0.872,-0.023 1.31,-0.009 0.438,0.014 0.933,0.216 1.042,0.64 0.053,0.207 0.002,0.426 -0.052,0.633 -0.487,1.856 -1.257,3.69 -2.59,5.07 -1.333,1.381 -3.305,2.244 -5.191,1.89 -1.506,-0.283 -2.768,-1.271 -3.964,-2.229 -2.272,-1.819 -4.545,-3.639 -6.817,-5.458 -1.048,-0.84 -2.11,-1.692 -2.903,-2.776 -0.795,-1.084 -1.303,-2.444 -1.091,-3.77 z"
   id="path229" />
				<path
   style="fill:#263238"
   d="m 373.67,95.485 c -0.933,-0.743 -2.003,-1.345 -3.174,-1.571 -1.17,-0.227 -2.449,-0.045 -3.416,0.652 -0.9,0.649 -1.449,1.66 -2.083,2.57 -0.634,0.91 -1.474,1.798 -2.572,1.958 -0.193,0.028 -0.405,0.04 -0.547,0.174 -0.25,0.237 -0.069,0.698 0.245,0.84 0.314,0.142 0.678,0.068 1.014,-0.01 -0.542,0.634 -1.312,1.069 -2.135,1.205 0.18,0.809 1.126,1.355 1.917,1.105 -0.317,1.287 -0.636,2.591 -0.628,3.917 0.008,1.326 0.376,2.698 1.278,3.67 0.993,1.071 2.607,1.671 3.04,3.065"
   id="path230" />
				<g
   id="g262">
					<g
   id="g238">
						<g
   id="g237">
							<g
   id="g236">
								<g
   id="g235">
									<g
   id="g234">
										<g
   id="g233">
											<g
   id="g232">
												<g
   id="g231">
													<path
   style="fill:#ffbe9d"
   d="m 383.235,142.244 -17.74,-0.228 1.981,-15.104 c 0,0 -1.212,-0.259 -1.293,-6.831 -0.081,-6.571 -0.383,-17.736 -0.383,-17.736 v 0 c 7.607,-3.269 16.388,-2.166 22.949,2.885 l 0.974,0.75 z"
   id="path231" />
												</g>
											</g>
										</g>
									</g>
								</g>
							</g>
						</g>
					</g>
					<g
   id="g244">
						<g
   id="g243">
							<g
   id="g242">
								<g
   id="g241">
									<g
   id="g240">
										<g
   id="g239">
											<path
   style="fill:#ffbe9d"
   d="m 387.662,114.061 c 0.112,-0.048 4.515,-1.335 4.372,3.157 -0.143,4.493 -4.624,3.422 -4.628,3.293 -0.004,-0.129 0.256,-6.45 0.256,-6.45 z"
   id="path238" />
										</g>
									</g>
								</g>
							</g>
						</g>
					</g>
					<g
   id="g250">
						<g
   id="g249">
							<g
   id="g248">
								<g
   id="g247">
									<g
   id="g246">
										<g
   id="g245">
											<path
   style="fill:#ffbe9d"
   d="m 366.562,113.123 c -0.112,-0.049 -4.117,-1.128 -3.973,3.364 0.143,4.493 4.624,3.422 4.628,3.293 0.003,-0.129 -0.655,-6.657 -0.655,-6.657 z"
   id="path244" />
										</g>
									</g>
								</g>
							</g>
						</g>
					</g>
					<g
   id="g252">
						<g
   id="g251">
							<path
   style="fill:#263238"
   d="m 389.119,113.56 c -0.671,3.764 -0.539,5.743 -1.16,8.257 -0.983,3.979 -2.959,7.03 -6.543,9.017 -3.584,1.987 -8.433,1.951 -11.512,-0.754 -2.137,-1.877 -3.651,-3.998 -3.968,-6.825 -0.317,-2.827 -1.15,-8.135 -1.17,-10.979 -0.036,-5.129 0.135,-9.729 0.135,-9.729 l 14.654,-2.652 8.339,4.958 z"
   id="path250" />
						</g>
					</g>
					<g
   id="g255">
						<g
   id="g254">
							<g
   id="g253">
								<path
   style="fill:#263238"
   d="m 374.003,133.103 c -0.022,0.104 1.131,0.39 2.568,0.227 1.438,-0.154 2.501,-0.684 2.457,-0.781 -0.042,-0.113 -1.126,0.227 -2.502,0.373 -1.374,0.157 -2.506,0.061 -2.523,0.181 z"
   id="path252" />
							</g>
						</g>
					</g>
					<g
   id="g261">
						<g
   id="g256">
							<path
   style="fill:#263238"
   d="m 388.411,119.96 c 0.429,-3.858 0.708,-8.27 1.311,-12.337 0.226,-1.526 0.77,-3.727 0.634,-5.264 -0.137,-1.543 -0.557,-1.073 -1.237,-2.465 -0.853,-1.746 -4.109,-2.909 -6.014,-3.292 -1.905,-0.383 -2.141,-2.03 -3.602,-0.749 -1.065,-1.595 -3.161,-2.426 -5.03,-1.994 -1.869,0.432 -3.387,2.099 -3.644,4 -1.042,-0.992 -2.763,-1.177 -3.993,-0.43 -1.23,0.747 -1.858,2.359 -1.459,3.742 -1.052,0.175 -1.995,0.907 -2.424,1.883 -0.43,0.976 -0.334,2.166 0.247,3.06 0.679,1.045 1.903,1.621 2.652,2.618 0.862,1.148 0.955,2.819 0.225,4.055"
   id="path255" />
						</g>
						<g
   id="g258">
							<g
   id="g257">
								<path
   style="fill:#455a64"
   d="m 369.531,119.157 c -0.098,-0.023 -0.302,1.841 0.506,3.949 0.788,2.115 2.175,3.378 2.233,3.296 0.099,-0.081 -1.097,-1.415 -1.849,-3.441 -0.776,-2.017 -0.762,-3.809 -0.89,-3.804 z"
   id="path256" />
							</g>
						</g>
						<g
   id="g260">
							<g
   id="g259">
								<path
   style="fill:#455a64"
   d="m 367.562,115.88 c -0.091,-0.047 -0.661,1.556 -0.286,3.557 0.354,2.005 1.453,3.304 1.522,3.228 0.109,-0.066 -0.786,-1.402 -1.118,-3.301 -0.359,-1.895 0.007,-3.461 -0.118,-3.484 z"
   id="path258" />
							</g>
						</g>
					</g>
				</g>
				<path
   style="fill:#e8505b"
   d="m 390.463,110.688 c 0,0 2.414,0 3.085,1.14 0.671,1.14 -0.201,9.456 -1.073,10.194 -0.872,0.738 -4.56,-0.402 -4.56,-0.402 0,0 1.543,-8.45 0.939,-10.596 z"
   id="path262" />
				<path
   style="fill:#e8505b"
   d="m 362.585,110.088 c 0,0 -1.701,0.567 -2.371,1.707 -0.67,1.14 0.12,8.889 0.992,9.627 0.872,0.738 4.56,-0.402 4.56,-0.402 0,0 -1.468,-8.785 -0.865,-10.931 h -2.316 z"
   id="path263" />
				<path
   style="fill:#e8505b"
   d="m 362.585,110.088 c 0,0 0.838,-14.515 14.586,-14.717 13.748,-0.201 14.014,15.426 14.014,15.426 l -2.067,0.171 c 0,0 0.457,-14.219 -11.344,-14.725 -11.876,-0.51 -13.792,13.33 -12.874,13.845 z"
   id="path264" />
				<path
   style="fill:#263238"
   d="m 386.016,100.349 c -1.116,-1.754 -2.64,-3.322 -4.571,-4.09 -1.931,-0.768 -4.306,-0.61 -5.887,0.74"
   id="path265" />
				<g
   id="g266">
					<path
   style="fill:#455a64"
   d="m 385.647,110.293 c -0.072,-0.018 0,-0.524 0.144,-1.326 0.137,-0.801 0.349,-1.902 0.34,-3.114 -0.011,-1.209 -0.314,-2.277 -0.672,-2.978 -0.352,-0.708 -0.707,-1.073 -0.649,-1.133 0.036,-0.047 0.501,0.233 0.969,0.95 0.472,0.706 0.862,1.86 0.873,3.154 0.01,1.291 -0.272,2.417 -0.502,3.204 -0.238,0.791 -0.435,1.26 -0.503,1.243 z"
   id="path266" />
				</g>
				<g
   id="g267">
					<path
   style="fill:#455a64"
   d="m 382.617,111.779 c -0.13,-0.072 0.233,-0.961 0.584,-2.076 0.358,-1.114 0.574,-2.05 0.722,-2.033 0.138,0.012 0.15,1.02 -0.225,2.191 -0.37,1.171 -0.961,1.988 -1.081,1.918 z"
   id="path267" />
				</g>
				<g
   id="g268">
					<path
   style="fill:#455a64"
   d="m 368.544,110.625 c -0.045,0.035 -0.551,-0.51 -1.008,-1.605 -0.458,-1.08 -0.797,-2.76 -0.438,-4.56 0.361,-1.8 1.32,-3.22 2.158,-4.041 0.843,-0.836 1.52,-1.144 1.548,-1.094 0.05,0.07 -0.541,0.483 -1.278,1.344 -0.735,0.85 -1.581,2.212 -1.918,3.893 -0.335,1.681 -0.078,3.264 0.273,4.331 0.349,1.078 0.736,1.686 0.663,1.732 z"
   id="path268" />
				</g>
				<g
   id="g269">
					<path
   style="fill:#455a64"
   d="m 384.563,93.91 c -0.04,0.066 -0.575,-0.213 -1.446,-0.609 -0.868,-0.382 -2.112,-0.883 -3.534,-0.867 -1.428,-0.009 -2.604,0.651 -3.204,1.35 -0.621,0.692 -0.736,1.304 -0.82,1.28 -0.055,0.005 -0.076,-0.675 0.535,-1.513 0.303,-0.408 0.759,-0.833 1.365,-1.142 0.605,-0.313 1.345,-0.485 2.118,-0.496 1.562,-0.016 2.863,0.584 3.707,1.059 0.85,0.492 1.313,0.882 1.279,0.938 z"
   id="path269" />
				</g>
				<g
   id="g270">
					<path
   style="fill:#455a64"
   d="m 364.524,98.074 c -0.057,-0.021 0.049,-0.523 0.522,-1.189 0.461,-0.659 1.351,-1.454 2.57,-1.809 1.221,-0.353 2.398,-0.158 3.14,0.151 0.756,0.309 1.114,0.676 1.077,0.724 -0.044,0.069 -0.465,-0.176 -1.195,-0.375 -0.721,-0.202 -1.787,-0.316 -2.877,0 -1.09,0.318 -1.928,0.985 -2.429,1.541 -0.51,0.558 -0.733,0.991 -0.808,0.957 z"
   id="path270" />
				</g>
				<g
   id="g271">
					<path
   style="fill:#455a64"
   d="m 369.357,114.587 c -0.017,-0.062 0.724,-0.259 1.907,-0.789 1.176,-0.529 2.797,-1.438 4.337,-2.933 l 0.85,-0.825 -0.464,1.094 c -0.278,0.655 -0.5,1.373 -0.635,2.135 -0.073,0.367 -0.131,0.835 0.007,0.897 0.099,0.114 0.502,-0.087 0.837,-0.323 1.195,-0.769 2.208,-1.701 3.015,-2.666 l 0.781,-0.934 -0.357,1.159 c -0.357,1.159 -0.689,2.238 -0.99,3.216 l -0.338,-0.205 c 2.059,-1.945 2.771,-3.681 2.871,-3.615 0.033,0.016 -0.112,0.451 -0.505,1.17 -0.394,0.715 -1.051,1.714 -2.083,2.74 l -0.55,0.547 0.212,-0.753 c 0.277,-0.985 0.584,-2.072 0.913,-3.239 l 0.424,0.225 c -0.822,1.014 -1.869,1.992 -3.111,2.792 -0.183,0.112 -0.35,0.235 -0.582,0.336 -0.208,0.09 -0.551,0.181 -0.848,-0.035 -0.287,-0.226 -0.299,-0.558 -0.29,-0.775 0.017,-0.239 0.055,-0.422 0.091,-0.628 0.149,-0.801 0.393,-1.553 0.697,-2.235 l 0.385,0.269 c -1.622,1.518 -3.325,2.394 -4.557,2.855 -1.239,0.463 -2.009,0.562 -2.017,0.52 z"
   id="path271" />
				</g>
				<path
   style="fill:#263238"
   d="m 377.93,97.261 c -0.283,-0.544 -0.828,-0.922 -1.417,-1.093 -0.589,-0.171 -1.219,-0.151 -1.823,-0.044 -1.479,0.264 -2.857,1.061 -3.823,2.212 -0.22,0.263 -0.417,0.669 -0.182,0.919 0.124,0.132 0.322,0.157 0.502,0.172 2.207,0.184 4.436,0.105 6.625,-0.234"
   id="path272" />
				<g
   id="g273">
					<path
   style="fill:#263238"
   d="m 363.917,121.578 c -0.13,0.037 -0.901,-2.454 -1.272,-5.638 -0.382,-3.183 -0.213,-5.785 -0.078,-5.779 0.152,0.001 0.217,2.575 0.595,5.718 0.366,3.144 0.903,5.662 0.755,5.699 z"
   id="path273" />
				</g>
				<g
   id="g274">
					<path
   style="fill:#263238"
   d="m 389.303,121.917 c -0.066,-0.047 0.287,-0.592 0.686,-1.542 0.406,-0.946 0.811,-2.318 1.007,-3.881 0.197,-1.564 0.201,-3.005 0.218,-4.049 0.013,-1.045 0.038,-1.697 0.111,-1.7 0.07,-0.003 0.175,0.639 0.257,1.689 0.077,1.048 0.133,2.514 -0.07,4.127 -0.202,1.613 -0.683,3.034 -1.191,3.972 -0.501,0.945 -0.969,1.423 -1.018,1.384 z"
   id="path274" />
				</g>
				<g
   id="g275">
					<path
   style="fill:#263238"
   d="m 387.972,138.003 c -0.073,-0.011 0.004,-0.905 0.147,-2.345 0.143,-1.439 0.343,-3.425 0.52,-5.623 0.176,-2.198 0.296,-4.19 0.385,-5.634 0.089,-1.444 0.155,-2.338 0.23,-2.338 0.07,0 0.133,0.897 0.139,2.349 0.006,1.451 -0.057,3.457 -0.234,5.665 -0.178,2.208 -0.437,4.197 -0.674,5.629 -0.239,1.432 -0.445,2.307 -0.513,2.297 z"
   id="path275" />
				</g>
				<g
   id="g276">
					<path
   style="fill:#263238"
   d="m 388.868,111.249 c -0.061,-0.122 0.965,-0.65 2.345,-0.573 1.381,0.066 2.347,0.697 2.274,0.812 -0.065,0.138 -1.044,-0.236 -2.301,-0.291 -1.255,-0.075 -2.268,0.196 -2.318,0.052 z"
   id="path276" />
				</g>
				<g
   id="g277">
					<path
   style="fill:#263238"
   d="m 359.963,112.155 c -0.056,-0.029 0.031,-0.362 0.34,-0.821 0.307,-0.452 0.875,-1.018 1.665,-1.359 0.79,-0.344 1.588,-0.377 2.129,-0.293 0.547,0.084 0.85,0.247 0.833,0.309 -0.025,0.164 -1.344,-0.161 -2.755,0.461 -1.416,0.608 -2.076,1.796 -2.212,1.703 z"
   id="path277" />
				</g>
			</g>
		</g>
		<g
   id="g308">
			<path
   style="fill:#e8505b"
   d="m 401.749,164.545 c -0.677,0.677 -5.644,26.186 -6.095,31.153 -0.452,4.966 5.778,25.628 2.053,30.594 l -2.074,0.559 h -50.06 l 4.254,-34.765 -2.032,-29.121 0.365,-18.006 14.76,-6.6 h 21.672 c 0,0 19.188,11.287 19.188,12.867 0,1.58 -2.031,13.319 -2.031,13.319 z"
   id="path279" />
			<g
   id="g280">
				<path
   style="fill:#263238"
   d="m 345.877,224.367 c -0.018,0 -0.023,-0.225 -0.017,-0.658 0.01,-0.432 0.055,-1.065 0.12,-1.881 0.134,-1.632 0.382,-3.989 0.712,-6.906 0.665,-5.833 1.679,-13.902 2.878,-22.872 l -10e-4,0.061 c -0.041,-0.423 -0.086,-0.878 -0.131,-1.335 -0.887,-9.318 -1.449,-17.767 -1.924,-23.877 -0.23,-3.009 -0.417,-5.466 -0.552,-7.236 -0.058,-0.812 -0.105,-1.466 -0.141,-1.968 -0.027,-0.451 -0.033,-0.688 -0.015,-0.69 0.018,-0.002 0.058,0.232 0.119,0.68 0.061,0.5 0.14,1.151 0.238,1.96 0.193,1.704 0.44,4.172 0.718,7.224 0.569,6.104 1.189,14.55 2.075,23.857 0.045,0.457 0.089,0.911 0.13,1.333 l 0.003,0.031 -0.004,0.03 c -1.188,8.94 -2.255,16.974 -3.035,22.846 -0.364,2.865 -0.66,5.199 -0.874,6.882 -0.088,0.77 -0.16,1.389 -0.215,1.867 -0.038,0.427 -0.067,0.652 -0.084,0.652 z"
   id="path280" />
			</g>
			<g
   id="g281">
				<path
   style="fill:#263238"
   d="m 396.802,227.569 c -0.012,-0.012 0.138,-0.172 0.399,-0.497 0.259,-0.326 0.633,-0.817 1.02,-1.506 0.37,-0.692 0.777,-1.594 0.879,-2.707 0.082,-1.103 -0.178,-2.4 -0.362,-3.823 -0.852,-5.702 -2.207,-13.627 -3.748,-22.568 l -0.008,-0.048 0.01,-0.049 c 0.283,-1.425 0.558,-2.935 0.82,-4.471 1.656,-9.996 2.901,-19.093 3.854,-25.667 0.468,-3.246 0.849,-5.892 1.122,-7.787 0.135,-0.878 0.243,-1.581 0.325,-2.115 0.08,-0.483 0.13,-0.735 0.148,-0.733 0.018,0.002 0.003,0.259 -0.044,0.746 -0.057,0.537 -0.133,1.244 -0.228,2.128 -0.233,1.901 -0.559,4.555 -0.958,7.81 -0.86,6.589 -2.046,15.692 -3.705,25.705 -0.263,1.54 -0.54,3.055 -0.828,4.488 l 0.001,-0.096 c 1.526,8.948 2.819,16.884 3.582,22.609 0.161,1.432 0.401,2.723 0.29,3.898 -0.136,1.166 -0.583,2.081 -0.987,2.774 -0.421,0.689 -0.824,1.167 -1.109,1.476 -0.288,0.308 -0.462,0.445 -0.473,0.433 z"
   id="path281" />
			</g>
			<path
   style="fill:#e8505b"
   d="m 388.573,137.218 c -0.439,-0.697 -1.322,-1.175 -2.102,-0.91 0.386,-0.945 -0.756,-1.919 -1.774,-1.84 -1.017,0.079 -1.859,0.777 -2.709,1.343 -3.742,2.491 -8.911,2.64 -12.79,0.369 -1.707,-1 -3.347,-2.474 -5.324,-2.395 -2.194,0.087 -3.788,2.038 -5.076,3.817 -0.686,0.947 -1.404,2.132 -0.948,3.209 l 0.834,-0.132 c 1.553,4.339 3.249,8.89 6.777,11.856 4.324,3.636 10.97,4.028 15.873,1.218 4.902,-2.81 7.893,-8.506 7.781,-14.156 -0.015,-0.824 -0.103,-1.682 -0.542,-2.379 z"
   id="path282" />
			<g
   id="g283">
				<path
   style="fill:#263238"
   d="m 389.221,141.208 c 0.017,0.005 -0.01,0.172 -0.077,0.486 -0.068,0.314 -0.179,0.775 -0.344,1.363 -0.33,1.174 -0.857,2.873 -1.814,4.85 -0.963,1.956 -2.398,4.24 -4.694,6.083 -1.135,0.921 -2.478,1.716 -3.986,2.256 -1.509,0.523 -3.201,0.765 -4.893,0.557 -1.691,-0.202 -3.271,-0.749 -4.704,-1.423 -1.432,-0.676 -2.754,-1.457 -3.913,-2.35 -1.156,-0.894 -2.131,-1.918 -2.849,-3.01 -0.716,-1.091 -1.215,-2.198 -1.611,-3.219 -0.77,-2.054 -1.232,-3.753 -1.638,-4.898 -0.391,-1.15 -0.652,-1.771 -0.614,-1.788 0.016,-0.007 0.099,0.14 0.242,0.428 0.143,0.288 0.336,0.722 0.561,1.29 0.467,1.129 0.987,2.822 1.79,4.832 0.412,0.999 0.92,2.071 1.626,3.114 0.707,1.04 1.654,2.013 2.784,2.871 1.131,0.856 2.432,1.614 3.836,2.269 1.402,0.652 2.932,1.175 4.548,1.367 1.615,0.198 3.215,-0.028 4.665,-0.522 1.447,-0.512 2.747,-1.267 3.855,-2.15 2.238,-1.761 3.672,-3.965 4.664,-5.873 0.984,-1.927 1.561,-3.595 1.949,-4.745 0.385,-1.152 0.579,-1.799 0.617,-1.788 z"
   id="path283" />
			</g>
			<g
   style="opacity:0.3"
   id="g285">
				<path
   d="M 362.837,134.709"
   id="path284" />
				<path
   d="m 384.18,135.063 c -0.725,-0.414 -1.331,0.177 -1.962,0.725 -2.052,1.78 -5.415,2.215 -8.074,1.936 -2.627,-0.275 -4.912,-1.039 -7.115,-2.811 -0.65,-0.523 -1.453,-0.88 -2.281,-0.985 -0.721,-0.091 -1.541,0.184 -1.911,0.781 1.152,0.344 1.954,1.456 2.521,2.546 0.959,1.842 1.614,3.826 2.475,5.716 0.861,1.89 1.97,3.731 3.62,4.993 1.65,1.262 3.928,1.852 5.857,1.083 1.625,-0.648 2.762,-2.122 3.69,-3.605 1.56,-2.493 2.771,-5.206 3.584,-8.032 0.238,-0.826 0.342,-1.921 -0.404,-2.347 z"
   id="path285" />
			</g>
			<g
   id="g286">
				<path
   style="fill:#263238"
   d="m 385.271,136.04 c 0.037,0.021 -0.221,0.485 -0.588,1.363 -0.373,0.877 -0.801,2.185 -1.301,3.824 -0.519,1.615 -1.115,3.648 -2.543,5.495 -0.701,0.916 -1.615,1.781 -2.773,2.346 -1.148,0.573 -2.58,0.729 -3.892,0.344 -1.317,-0.373 -2.441,-1.139 -3.332,-2.031 -0.899,-0.898 -1.554,-1.936 -2.092,-2.944 -1.06,-2.034 -1.713,-3.97 -2.475,-5.488 -0.737,-1.531 -1.538,-2.656 -2.18,-3.352 -0.637,-0.704 -1.077,-1.006 -1.048,-1.045 0.01,-0.015 0.126,0.051 0.339,0.192 0.208,0.146 0.508,0.373 0.854,0.712 0.702,0.666 1.572,1.791 2.363,3.326 0.817,1.523 1.512,3.455 2.569,5.427 0.536,0.978 1.176,1.968 2.029,2.809 0.848,0.84 1.907,1.551 3.112,1.891 1.2,0.35 2.476,0.214 3.534,-0.303 1.064,-0.512 1.936,-1.313 2.614,-2.181 1.384,-1.744 2.008,-3.709 2.571,-5.314 0.544,-1.621 1.031,-2.932 1.466,-3.793 0.214,-0.432 0.401,-0.757 0.539,-0.969 0.138,-0.212 0.218,-0.318 0.234,-0.309 z"
   id="path286" />
			</g>
			<g
   id="g287">
				<path
   style="fill:#263238"
   d="m 385.676,143.599 c 0.028,0.008 -0.036,0.359 -0.249,0.965 -0.21,0.607 -0.611,1.459 -1.273,2.407 -1.284,1.882 -3.905,4.142 -7.461,4.748 -3.562,0.579 -6.773,-0.712 -8.597,-2.077 -0.933,-0.683 -1.588,-1.359 -1.983,-1.865 -0.398,-0.505 -0.572,-0.816 -0.548,-0.832 0.083,-0.074 0.87,1.142 2.742,2.395 1.822,1.248 4.917,2.416 8.302,1.866 3.38,-0.575 5.93,-2.682 7.25,-4.452 1.363,-1.792 1.715,-3.198 1.817,-3.155 z"
   id="path287" />
			</g>
			<g
   id="g288">
				<path
   style="fill:#263238"
   d="m 394.069,207.789 c 10e-4,0.018 -0.139,0.041 -0.407,0.069 -0.268,0.032 -0.665,0.051 -1.177,0.063 -1.023,0.008 -2.514,-0.057 -4.318,-0.402 -1.804,-0.336 -3.914,-0.945 -6.155,-1.874 -2.241,-0.928 -4.604,-2.167 -7.001,-3.588 -4.781,-2.866 -8.977,-5.645 -12.051,-7.608 -1.464,-0.963 -2.678,-1.761 -3.608,-2.372 -0.845,-0.57 -1.304,-0.899 -1.284,-0.929 0.019,-0.03 0.515,0.242 1.394,0.759 0.952,0.575 2.196,1.326 3.696,2.232 3.12,1.881 7.356,4.616 12.118,7.471 2.386,1.413 4.719,2.653 6.923,3.594 2.202,0.941 4.271,1.578 6.041,1.955 1.77,0.386 3.237,0.506 4.249,0.56 1.014,0.042 1.578,0.027 1.58,0.07 z"
   id="path288" />
			</g>
			<g
   style="opacity:0.3"
   id="g289">
				<path
   d="m 360.203,192.345 -0.412,0.095 c 4.913,2.963 9.827,5.925 14.74,8.888 3.698,2.23 7.498,4.499 11.741,5.299 -7.363,-6.775 -16.395,-11.723 -26.069,-14.282 z"
   id="path289" />
			</g>
			<g
   style="opacity:0.3"
   id="g290">
				<path
   d="m 358.705,140.776 c 0.034,6.72 3.717,13.312 9.421,16.864 2.032,1.265 4.382,2.176 6.77,2.011 2.361,-0.164 4.564,-1.38 6.255,-3.036 1.691,-1.656 2.916,-3.729 3.936,-5.865 -2.249,2.986 -5.755,4.991 -9.468,5.417 -3.713,0.425 -7.582,-0.736 -10.447,-3.137 -3.687,-3.089 -5.502,-7.848 -6.738,-12.496"
   id="path290" />
			</g>
			<g
   style="opacity:0.3"
   id="g291">
				<path
   d="m 367.506,149.265 c 2.365,2.259 5.615,3.702 8.877,3.462 3.262,-0.241 6.431,-2.347 7.507,-5.436 -1.979,2.308 -4.866,3.814 -7.891,4.116 -3.025,0.302 -6.153,-0.604 -8.549,-2.475"
   id="path291" />
			</g>
			<g
   id="g292">
				<path
   style="fill:#ffffff"
   d="m 359.438,146.438 c 0.005,0.045 -0.794,0.164 -2.084,0.359 -1.29,0.194 -3.069,0.473 -5.025,0.831 -1.957,0.36 -3.719,0.731 -4.994,1.007 -1.275,0.276 -2.064,0.448 -2.076,0.404 -0.006,-0.021 0.185,-0.091 0.534,-0.2 0.349,-0.11 0.858,-0.254 1.49,-0.419 1.264,-0.332 3.026,-0.739 4.989,-1.1 1.963,-0.359 3.754,-0.604 5.054,-0.742 0.65,-0.069 1.177,-0.116 1.542,-0.137 0.365,-0.023 0.568,-0.025 0.57,-0.003 z"
   id="path292" />
			</g>
			<g
   id="g293">
				<path
   style="fill:#ffffff"
   d="m 365.288,138.227 c 0.04,0.095 -1.793,0.427 -3.38,1.944 -1.616,1.488 -2.064,3.295 -2.156,3.249 -0.033,-0.007 0.023,-0.461 0.304,-1.141 0.277,-0.678 0.818,-1.563 1.639,-2.336 0.824,-0.77 1.742,-1.253 2.436,-1.486 0.695,-0.236 1.152,-0.263 1.157,-0.23 z"
   id="path293" />
			</g>
			<g
   id="g294">
				<path
   style="fill:#ffffff"
   d="m 367.131,148.452 c 0.044,0.083 -0.789,0.539 -1.565,1.38 -0.787,0.833 -1.184,1.694 -1.269,1.657 -0.077,-0.02 0.209,-0.986 1.041,-1.87 0.824,-0.891 1.768,-1.242 1.793,-1.167 z"
   id="path294" />
			</g>
			<g
   id="g295">
				<path
   style="fill:#ffffff"
   d="m 369.763,146.022 c 0.022,0.089 -0.708,0.311 -1.48,0.814 -0.778,0.494 -1.282,1.066 -1.354,1.009 -0.069,-0.042 0.354,-0.741 1.185,-1.272 0.827,-0.536 1.639,-0.631 1.649,-0.551 z"
   id="path295" />
			</g>
			<g
   id="g296">
				<path
   style="fill:#ffffff"
   d="m 373.568,156.175 c -0.048,0.067 -0.809,-0.76 -0.903,-2.075 -0.11,-1.314 0.514,-2.248 0.572,-2.19 0.087,0.037 -0.366,0.958 -0.26,2.166 0.082,1.209 0.672,2.05 0.591,2.099 z"
   id="path296" />
			</g>
			<g
   id="g297">
				<path
   style="fill:#ffffff"
   d="m 377.653,151.091 c -0.045,0.072 -0.414,-0.142 -0.539,-0.616 -0.129,-0.473 0.083,-0.842 0.158,-0.803 0.084,0.03 0.039,0.355 0.143,0.722 0.094,0.37 0.295,0.629 0.238,0.697 z"
   id="path297" />
			</g>
			<g
   id="g298">
				<path
   style="fill:#ffffff"
   d="m 382.543,152.518 c -0.077,-0.042 0.295,-0.682 0.091,-1.508 -0.176,-0.833 -0.79,-1.247 -0.739,-1.319 0.017,-0.033 0.207,0.017 0.444,0.218 0.236,0.198 0.492,0.566 0.6,1.031 0.106,0.465 0.035,0.908 -0.091,1.189 -0.126,0.284 -0.275,0.411 -0.305,0.389 z"
   id="path298" />
			</g>
			<g
   id="g299">
				<path
   style="fill:#ffffff"
   d="m 384.721,146.024 c -0.077,0.015 -0.191,-0.724 -0.956,-1.086 -0.747,-0.397 -1.408,-0.047 -1.442,-0.118 -0.022,-0.027 0.104,-0.183 0.402,-0.282 0.294,-0.102 0.753,-0.093 1.18,0.121 0.426,0.214 0.708,0.578 0.801,0.874 0.099,0.298 0.05,0.492 0.015,0.491 z"
   id="path299" />
			</g>
			<g
   id="g300">
				<path
   style="fill:#ffffff"
   d="m 387.928,143.188 c -0.054,0 -0.064,-0.318 -0.222,-0.783 -0.154,-0.465 -0.501,-1.066 -1.066,-1.556 -0.569,-0.487 -1.215,-0.74 -1.698,-0.823 -0.484,-0.087 -0.8,-0.05 -0.808,-0.103 -0.008,-0.031 0.305,-0.151 0.836,-0.117 0.527,0.03 1.255,0.274 1.874,0.805 0.617,0.533 0.967,1.216 1.075,1.733 0.113,0.52 0.04,0.847 0.009,0.844 z"
   id="path300" />
			</g>
			<g
   id="g301">
				<path
   style="fill:#ffffff"
   d="m 399.722,159.548 c 0,0.011 -0.183,0.015 -0.53,0.014 -0.406,-0.005 -0.907,-0.012 -1.516,-0.02 -1.393,-0.026 -3.279,-0.061 -5.575,-0.103 -4.707,-0.084 -11.211,-0.16 -18.393,-0.13 -7.185,0.032 -13.688,0.164 -18.395,0.287 -2.296,0.062 -4.181,0.113 -5.574,0.151 -0.609,0.013 -1.11,0.024 -1.516,0.033 -0.347,0.004 -0.529,0.001 -0.53,-0.01 0,-0.011 0.181,-0.029 0.527,-0.053 0.405,-0.024 0.905,-0.055 1.514,-0.091 1.392,-0.063 3.277,-0.147 5.571,-0.25 4.706,-0.18 11.212,-0.347 18.401,-0.379 7.186,-0.03 13.693,0.082 18.4,0.222 2.296,0.083 4.181,0.152 5.574,0.202 0.609,0.031 1.109,0.057 1.515,0.078 0.345,0.021 0.527,0.038 0.527,0.049 z"
   id="path301" />
			</g>
			<g
   id="g302">
				<path
   style="fill:#ffffff"
   d="m 398.715,148.252 c -0.01,0.044 -0.598,-0.057 -1.545,-0.221 -0.947,-0.164 -2.255,-0.383 -3.707,-0.58 -1.452,-0.195 -2.772,-0.331 -3.728,-0.423 -0.957,-0.093 -1.55,-0.151 -1.548,-0.196 0.002,-0.041 0.599,-0.061 1.563,-0.025 0.964,0.036 2.295,0.138 3.755,0.334 1.46,0.197 2.77,0.452 3.709,0.673 0.939,0.22 1.51,0.398 1.501,0.438 z"
   id="path302" />
			</g>
			<g
   id="g303">
				<path
   style="fill:#ffffff"
   d="m 397.908,174.014 c 10e-4,0.011 -0.169,0.03 -0.494,0.057 -0.385,0.028 -0.853,0.061 -1.419,0.102 -1.233,0.084 -3.018,0.182 -5.225,0.285 -4.413,0.206 -10.516,0.394 -17.258,0.419 -6.744,0.023 -12.848,-0.122 -17.263,-0.296 -2.207,-0.086 -3.993,-0.172 -5.226,-0.247 -0.566,-0.037 -1.035,-0.067 -1.42,-0.092 -0.324,-0.025 -0.495,-0.043 -0.494,-0.053 0,-0.011 0.172,-0.014 0.497,-0.01 0.385,0.009 0.854,0.02 1.422,0.033 1.315,0.037 3.081,0.087 5.228,0.148 4.415,0.117 10.515,0.227 17.255,0.204 6.737,-0.025 12.836,-0.179 17.25,-0.328 2.146,-0.076 3.913,-0.139 5.227,-0.185 0.567,-0.017 1.037,-0.032 1.422,-0.043 0.326,-0.006 0.498,-0.004 0.498,0.006 z"
   id="path303" />
			</g>
			<g
   id="g304">
				<path
   style="fill:#ffffff"
   d="m 396.288,189.628 c 0,0.011 -0.159,0.026 -0.464,0.044 -0.366,0.018 -0.805,0.039 -1.333,0.065 -1.158,0.051 -2.833,0.104 -4.904,0.154 -4.142,0.099 -9.866,0.157 -16.188,0.072 -6.324,-0.087 -12.045,-0.3 -16.183,-0.512 -2.069,-0.105 -3.742,-0.204 -4.898,-0.287 -0.527,-0.04 -0.965,-0.073 -1.33,-0.101 -0.304,-0.027 -0.463,-0.046 -0.463,-0.056 0.001,-0.011 0.161,-0.013 0.466,-0.007 0.366,0.012 0.805,0.025 1.333,0.042 1.242,0.047 2.896,0.111 4.901,0.188 4.139,0.155 9.857,0.333 16.177,0.42 6.318,0.085 12.039,0.063 16.18,0.02 2.007,-0.022 3.662,-0.04 4.905,-0.054 0.528,-0.002 0.968,-0.004 1.334,-0.006 0.306,10e-4 0.466,0.007 0.467,0.018 z"
   id="path304" />
			</g>
			<g
   id="g305">
				<path
   style="fill:#ffffff"
   d="m 371.786,200.86 c 10e-4,0.021 -0.323,0.06 -0.911,0.112 -0.588,0.053 -1.441,0.11 -2.495,0.163 -2.109,0.107 -5.028,0.174 -8.25,0.099 -3.223,-0.078 -6.136,-0.284 -8.237,-0.492 -1.051,-0.103 -1.9,-0.201 -2.485,-0.282 -0.585,-0.08 -0.907,-0.134 -0.905,-0.155 0.002,-0.021 0.329,-0.008 0.917,0.034 0.709,0.052 1.536,0.113 2.491,0.183 2.103,0.151 5.01,0.322 8.226,0.399 3.215,0.076 6.127,0.044 8.234,-0.007 0.957,-0.024 1.786,-0.046 2.497,-0.064 0.589,-0.014 0.916,-0.012 0.918,0.01 z"
   id="path305" />
			</g>
			<g
   id="g306">
				<path
   style="fill:#ffffff"
   d="m 396.495,202.146 c 0.003,0.021 -0.252,0.081 -0.717,0.171 -0.465,0.091 -1.141,0.204 -1.979,0.328 -1.675,0.248 -4.002,0.516 -6.583,0.676 -2.581,0.157 -4.924,0.176 -6.617,0.134 -0.847,-0.02 -1.531,-0.049 -2.004,-0.083 -0.473,-0.032 -0.733,-0.06 -0.733,-0.082 10e-4,-0.022 0.263,-0.035 0.736,-0.04 0.598,-0.005 1.261,-0.01 2.002,-0.016 1.69,-0.015 4.023,-0.068 6.596,-0.225 2.572,-0.159 4.895,-0.391 6.574,-0.583 0.736,-0.085 1.394,-0.16 1.989,-0.229 0.47,-0.053 0.732,-0.072 0.736,-0.051 z"
   id="path306" />
			</g>
			<g
   id="g307">
				<path
   style="fill:#ffffff"
   d="m 397.685,217.305 c 10e-4,0.011 -0.172,0.036 -0.503,0.075 -0.391,0.042 -0.869,0.092 -1.449,0.154 -1.258,0.132 -3.083,0.281 -5.341,0.425 -4.515,0.292 -10.771,0.487 -17.675,0.272 -6.906,-0.222 -13.138,-0.812 -17.625,-1.389 -2.244,-0.287 -4.056,-0.55 -5.304,-0.762 -0.575,-0.098 -1.049,-0.179 -1.436,-0.245 -0.328,-0.059 -0.499,-0.096 -0.497,-0.106 0.002,-0.011 0.176,0.005 0.507,0.044 0.389,0.05 0.866,0.112 1.444,0.187 1.252,0.174 3.067,0.404 5.312,0.663 4.49,0.52 10.714,1.074 17.609,1.296 6.893,0.214 13.139,0.055 17.652,-0.18 2.257,-0.116 4.083,-0.231 5.344,-0.326 0.581,-0.038 1.061,-0.07 1.453,-0.095 0.333,-0.019 0.508,-0.023 0.509,-0.013 z"
   id="path307" />
			</g>
		</g>
	</g>
</g>
</svg>
