<?xml version="1.0" encoding="UTF-8" standalone="no"?>
<!-- Generator: Adobe Illustrator 27.5.0, SVG Export Plug-In . SVG Version: 6.00 Build 0)  -->

<svg
   version="1.1"
   x="0px"
   y="0px"
   viewBox="0 0 745.73681 421.57227"
   xml:space="preserve"
   id="svg309"
   width="745.73682"
   height="421.57227"
   xmlns="http://www.w3.org/2000/svg"
   xmlns:svg="http://www.w3.org/2000/svg"><defs
   id="defs309" />
<g
   id="Background_Complete"
   transform="translate(-4.4900193,-38.890835)">
	<g
   id="g1"
   transform="translate(-10.234722,-19.867401)">
		<path
   style="fill:#fafafa"
   d="m 502.147,73.422 c 0.469,-3.405 -4.336,-6.205 -7.947,-6.496 -1.722,-0.139 -3.51,0.124 -5.141,-0.444 -3.534,-1.232 -4.946,-5.798 -8.394,-7.252 -2.578,-1.087 -5.546,-0.119 -8.046,1.139 -2.499,1.258 -4.969,2.841 -7.762,3.02 -2.429,0.155 -5.066,-0.745 -7.192,0.441 -1.584,0.884 -2.413,2.709 -3.873,3.785 -1.428,1.053 -3.291,1.276 -5.062,1.373 -1.772,0.096 -3.606,0.114 -5.219,0.853 -1.613,0.739 -2.948,2.445 -2.613,4.187 z"
   id="path1" />
	</g>
	<g
   id="g2"
   transform="translate(28.394379,-20.112685)">
		<path
   style="fill:#e0e0e0"
   d="m 686.238,78.63 c 0.469,-3.405 -4.336,-6.206 -7.947,-6.496 -1.722,-0.139 -3.51,0.124 -5.141,-0.444 -3.534,-1.232 -4.946,-5.798 -8.395,-7.252 -2.578,-1.087 -5.546,-0.119 -8.046,1.139 -2.499,1.258 -4.969,2.841 -7.762,3.02 -2.429,0.155 -5.067,-0.745 -7.192,0.441 -1.584,0.884 -2.413,2.709 -3.873,3.785 -1.428,1.053 -3.291,1.276 -5.062,1.372 -1.772,0.096 -3.606,0.114 -5.219,0.853 -1.613,0.739 -2.948,2.445 -2.613,4.187 z"
   id="path2" />
	</g>
	<g
   id="g3">
		<path
   style="fill:#e0e0e0"
   d="m 110.81237,85.254053 c 0.469,-3.405 -4.336,-6.205 -7.947,-6.496 -1.722,-0.139 -3.51,0.124 -5.142,-0.444 -3.534,-1.232 -4.946,-5.798 -8.394,-7.252 -2.578,-1.087 -5.546,-0.119 -8.046,1.138 -2.499,1.258 -4.969,2.841 -7.762,3.02 -2.429,0.156 -5.067,-0.745 -7.192,0.441 -1.584,0.884 -2.413,2.709 -3.873,3.785 -1.428,1.053 -3.291,1.276 -5.062,1.373 -1.772,0.096 -3.606,0.114 -5.219,0.853 -1.613,0.739 -2.948,2.445 -2.613,4.187 z"
   id="path3" />
	</g>
	<g
   id="g4"
   transform="translate(8.2816939,-11.830991)">
		<path
   style="fill:#ebebeb"
   d="m 594.77732,95.659726 c 0.685,-4.979 -6.341,-9.075 -11.622,-9.5 -2.518,-0.203 -5.133,0.182 -7.519,-0.649 -5.168,-1.801 -7.233,-8.478 -12.276,-10.605 -3.77,-1.59 -8.111,-0.175 -11.766,1.665 -3.655,1.84 -7.267,4.155 -11.351,4.416 -3.552,0.227 -7.409,-1.09 -10.517,0.645 -2.316,1.293 -3.529,3.961 -5.663,5.536 -2.088,1.54 -4.812,1.866 -7.403,2.007 -2.591,0.141 -5.273,0.167 -7.632,1.247 -2.359,1.08 -4.311,3.575 -3.821,6.123 z"
   id="path4" />
	</g>
	<g
   id="g5"
   transform="translate(-28.727153,-4.1300231)">
		<path
   style="fill:#f5f5f5"
   d="m 222.079,123.548 c 0.596,-4.331 -5.516,-7.894 -10.11,-8.264 -2.19,-0.177 -4.466,0.158 -6.541,-0.565 -4.496,-1.567 -6.292,-7.375 -10.679,-9.226 -3.28,-1.383 -7.056,-0.152 -10.235,1.448 -3.18,1.6 -6.322,3.614 -9.874,3.842 -3.09,0.198 -6.445,-0.948 -9.149,0.561 -2.014,1.125 -3.07,3.446 -4.926,4.815 -1.816,1.34 -4.186,1.623 -6.44,1.746 -2.254,0.123 -4.587,0.145 -6.639,1.085 -2.052,0.94 -3.75,3.11 -3.324,5.326 z"
   id="path5" />
	</g>
	<path
   style="fill:#e0e0e0"
   d="m 248.153,220.129 c -4.143,-9.322 -18.124,-12.279 -25.686,-5.434 -3.739,-8.537 -16.666,-11.107 -23.385,-4.649 -0.083,-4.755 -3.369,-9.291 -7.861,-10.853 -4.492,-1.562 -9.882,-0.042 -12.898,3.635 -1.203,-8.841 -8.288,-16.58 -16.99,-18.556 -8.701,-1.976 -18.434,1.943 -23.338,9.398 -13.39,-6.384 -31.149,-1.369 -39.22,11.078 -5.058,-8.191 -18.763,-8.769 -24.493,-1.032 -5.106,-6.131 -13.955,-8.855 -21.625,-6.659 -7.67,2.197 -13.736,9.192 -14.823,17.096 -9.364,-6.348 -23.284,0.998 -28.01,11.277 H 271.33 c -1.172,-7.894 -16.887,-10.523 -23.177,-5.301 z"
   id="path6" />
	
	<path
   style="fill:#f5f5f5"
   d="m 658.949,431.069 c 5.634,1.78 9.284,7.038 13.57,11.105 4.287,4.067 11.089,7.112 15.899,3.68 -7.048,-7.408 -14.096,-14.816 -21.144,-22.224 l -40.09,1.291 c 10.631,6.301 13.125,21.45 23.474,28.204 -4.513,-6.91 -9.034,-13.832 -12.892,-21.128 -0.64,-1.21 -1.192,-2.879 -0.17,-3.789 0.459,-0.409 1.113,-0.511 1.728,-0.514 3.53,-0.018 6.546,2.624 8.489,5.572 1.943,2.948 3.187,6.332 5.304,9.157 2.186,2.917 5.19,5.095 8.147,7.226 5,3.604 10.001,7.209 15.001,10.813 0.309,-2.745 -1.117,-5.369 -2.656,-7.664 -3.07,-4.58 -6.792,-8.723 -11.017,-12.266 -2.456,-2.059 -5.137,-3.977 -6.849,-6.686 -0.279,-0.442 -0.538,-0.935 -0.505,-1.457 0.1,-1.515 2.263,-1.778 3.711,-1.32 z"
   id="path8" />
	<path
   style="fill:#f5f5f5"
   d="m 133.826,352.127 c -0.668,-1.356 -1.804,-2.52 -2.061,-4.01 -0.307,-1.782 0.561,-4.067 -0.892,-5.144 -1.229,-0.911 -3.449,-0.209 -4.15,-1.569 l -27.171,-1.403 c -2.268,1.451 -4.657,3.039 -5.748,5.5 -1.091,2.462 -0.149,6.005 2.47,6.631 2.218,0.53 5.038,-1.027 6.59,0.644 0.439,0.472 0.644,1.111 0.811,1.734 1.237,4.626 1.519,10.35 5.698,12.687 1.881,1.052 4.17,1.112 6.122,2.026 4.847,2.27 6.772,9.301 12.06,10.129 1.403,0.22 3.052,-0.206 3.706,-1.467 0.955,-1.838 -0.674,-3.87 -1.637,-5.704 -2.304,-4.385 -0.869,-10.084 -3.378,-14.356 -0.64,-1.089 -1.523,-2.055 -1.918,-3.255 -0.394,-1.2 -0.076,-2.789 1.098,-3.255 3.047,-1.209 4.6,6.027 7.628,4.774 1.397,-0.577 1.44,-2.605 0.772,-3.962 z"
   id="path9" />
	<g
   id="g11"
   transform="translate(14.386243,-1.1988536)">
		<path
   style="fill:#f5f5f5"
   d="m 412.528,228.423 4.133,-0.029 c -1.376,-0.071 -2.757,-0.068 -4.133,0.029 z"
   id="path10" />
		<path
   style="fill:#f5f5f5"
   d="m 416.661,228.394 c 8.429,0.437 16.693,3.972 22.742,9.872 3.253,3.173 6.281,7.208 10.763,7.961 3.781,0.635 7.539,-1.31 11.372,-1.281 5.267,0.039 9.701,3.689 14.461,5.945 4.76,2.256 11.673,2.48 14.081,-2.204 0.246,3.908 4.328,6.375 8.096,7.441 3.768,1.066 7.977,1.575 10.762,4.327 2.236,2.21 3.566,5.829 6.666,6.36 1.72,0.295 3.414,-0.525 5.142,-0.773 3.437,-0.493 6.734,1.279 10.065,2.258 3.331,0.979 7.675,0.778 9.35,-2.264 14.508,1.922 29.015,3.844 43.523,5.766 5.11,0.677 10.232,1.355 15.386,1.456 6.437,0.126 12.891,-0.655 19.112,-2.313 3.243,-0.865 6.418,-1.964 9.605,-3.018 2.131,-0.705 4.282,-1.393 6.508,-1.682 2.314,-0.3 4.658,-0.161 6.992,-0.156 13.541,0.032 26.645,-4.405 39.455,-8.791 19.854,-6.798 40.89,-14.423 53.619,-31.107 z"
   id="path11" />
	</g>
	<path
   style="fill:#f5f5f5"
   d="m 11.286,225.43 c 4.375,3.871 13.804,3.982 19.272,6.039 2.266,0.852 3.936,2.762 5.872,4.216 4.792,3.596 11.608,4.273 17.013,1.691 4.785,2.155 9.641,4.177 14.654,5.729 7.91,2.449 16.187,3.712 24.468,3.732 22.226,0.054 43.487,-8.706 65.517,-11.648 27.937,-3.731 56.535,1.963 84.418,-2.156 4.665,-0.689 9.334,-1.666 13.629,-3.613 2.589,-1.173 5.021,-2.693 7.211,-4.505 z"
   id="path12" />
	<g
   id="g13">
		<path
   style="fill:#e0e0e0"
   d="m 306.951,273.976 c 0,0.144 -32.409,0.26 -72.379,0.26 -39.984,0 -72.386,-0.117 -72.386,-0.26 0,-0.143 32.402,-0.26 72.386,-0.26 39.97,0 72.379,0.117 72.379,0.26 z"
   id="path13" />
	</g>
	<g
   id="g14">
		<path
   style="fill:#e0e0e0"
   d="m 322.462,280.608 c 0,0.144 -12.624,0.26 -28.194,0.26 -15.575,0 -28.196,-0.117 -28.196,-0.26 0,-0.143 12.622,-0.26 28.196,-0.26 15.569,0 28.194,0.117 28.194,0.26 z"
   id="path14" />
	</g>
	<g
   id="g15">
		<path
   style="fill:#e0e0e0"
   d="m 160.647,435.768 c 0,0.144 -25.406,0.26 -56.737,0.26 -31.343,0 -56.743,-0.117 -56.743,-0.26 0,-0.143 25.4,-0.26 56.743,-0.26 31.332,0 56.737,0.116 56.737,0.26 z"
   id="path15" />
	</g>
	<g
   id="g16">
		<path
   style="fill:#e0e0e0"
   d="m 170.454,441.722 c 0,0.144 -12.232,0.26 -27.318,0.26 -15.091,0 -27.321,-0.117 -27.321,-0.26 0,-0.143 12.23,-0.26 27.321,-0.26 15.086,0 27.318,0.117 27.318,0.26 z"
   id="path16" />
	</g>
	<g
   id="g18">
		<g
   id="g17">
			<path
   style="fill:#e0e0e0"
   d="m 318.741,47.155 c -0.015,0.04 -0.433,-0.113 -1.211,-0.27 -0.774,-0.154 -1.929,-0.289 -3.324,-0.088 -1.386,0.197 -3.02,0.763 -4.448,1.947 -1.426,1.163 -2.646,2.918 -3.134,4.993 l -0.014,0.055 -0.19,0.74 -0.284,-0.702 c -0.799,-1.974 -2.218,-3.547 -3.757,-4.552 -1.543,-1.022 -3.205,-1.454 -4.597,-1.561 -2.828,-0.192 -4.483,0.69 -4.503,0.573 -0.011,-0.024 0.376,-0.248 1.144,-0.497 0.764,-0.246 1.928,-0.494 3.381,-0.427 1.442,0.065 3.192,0.477 4.824,1.527 1.626,1.03 3.128,2.67 3.971,4.751 l -0.474,0.038 0.015,-0.058 c 0.517,-2.197 1.815,-4.034 3.33,-5.236 1.519,-1.226 3.25,-1.782 4.691,-1.94 1.454,-0.163 2.638,0.032 3.414,0.248 0.78,0.22 1.176,0.436 1.166,0.459 z"
   id="path17" />
		</g>
	</g>
	<g
   id="g20">
		<g
   id="g19">
			<path
   style="fill:#e0e0e0"
   d="m 192.097,41.589 c 0.027,0.028 -0.355,0.422 -1.006,1.162 -0.652,0.739 -1.542,1.86 -2.47,3.354 -1.867,2.949 -3.735,7.643 -3.671,13.026 0,0.056 -10e-4,0.112 -10e-4,0.164 l -0.453,0.037 c -0.78,-5.295 -3.558,-9.514 -5.997,-11.953 -2.452,-2.492 -4.446,-3.459 -4.38,-3.551 0.008,-0.014 0.131,0.043 0.36,0.164 0.224,0.128 0.573,0.291 0.981,0.566 0.839,0.515 1.997,1.364 3.266,2.595 1.27,1.227 2.615,2.878 3.759,4.926 1.146,2.043 2.055,4.501 2.462,7.188 l -0.453,0.037 c 0,-0.053 0.001,-0.11 0.001,-0.167 -0.066,-5.494 1.893,-10.261 3.854,-13.204 0.976,-1.492 1.915,-2.594 2.612,-3.302 0.336,-0.366 0.635,-0.613 0.825,-0.793 0.193,-0.174 0.3,-0.26 0.311,-0.249 z"
   id="path18" />
		</g>
	</g>
</g>



<g
   id="Plant"
   transform="translate(-4.4900193,-38.890835)">
	<g
   id="g114">
		<g
   id="g100">
			<path
   style="fill:#455a64"
   d="m 113.809,341.233 0.427,-0.046 c -0.871,-13.014 -7.398,-26.901 -12.127,-39.077 -4.865,-12.526 -9.426,-25.392 -20.502,-33 11.969,23.325 22.725,47.68 32.202,72.123"
   id="path99" />
		</g>
		<g
   id="g102">
			<g
   id="g101">
				<path
   style="fill:#455a64"
   d="m 121.584,275.255 c 0.005,0.002 -0.01,0.059 -0.043,0.168 -0.039,0.123 -0.089,0.283 -0.153,0.484 -0.146,0.44 -0.352,1.06 -0.614,1.85 -0.136,0.403 -0.286,0.848 -0.45,1.335 -0.149,0.494 -0.311,1.029 -0.485,1.603 -0.339,1.153 -0.763,2.455 -1.126,3.924 -0.193,0.732 -0.395,1.498 -0.605,2.296 -0.206,0.799 -0.379,1.641 -0.582,2.507 -0.422,1.728 -0.755,3.6 -1.135,5.563 -0.682,3.94 -1.269,8.301 -1.619,12.903 -0.322,4.606 -0.375,9.006 -0.28,13.005 0.084,1.998 0.139,3.898 0.295,5.671 0.07,0.887 0.115,1.745 0.198,2.566 0.086,0.821 0.169,1.609 0.248,2.361 0.137,1.507 0.352,2.859 0.508,4.051 0.082,0.594 0.159,1.148 0.229,1.659 0.085,0.506 0.162,0.97 0.232,1.389 0.134,0.822 0.238,1.467 0.313,1.924 0.031,0.209 0.056,0.374 0.075,0.502 0.015,0.113 0.021,0.172 0.016,0.173 0,0 -0.839,-3.658 -1.565,-9.676 -0.085,-0.753 -0.174,-1.542 -0.266,-2.363 -0.089,-0.822 -0.139,-1.681 -0.215,-2.569 -0.166,-1.775 -0.23,-3.678 -0.32,-5.68 -0.109,-4.006 -0.064,-8.416 0.259,-13.032 0.35,-4.612 0.946,-8.982 1.643,-12.927 0.387,-1.966 0.73,-3.839 1.162,-5.569 0.208,-0.866 0.386,-1.708 0.598,-2.508 0.217,-0.798 0.425,-1.564 0.623,-2.295 0.376,-1.468 0.814,-2.768 1.167,-3.918 0.181,-0.573 0.351,-1.106 0.507,-1.599 0.172,-0.484 0.33,-0.928 0.473,-1.328 0.283,-0.784 0.505,-1.399 0.663,-1.835 0.074,-0.197 0.133,-0.354 0.179,-0.475 0.042,-0.108 0.066,-0.161 0.07,-0.16 z"
   id="path100" />
			</g>
		</g>
		<g
   id="g106">
			<g
   id="g103">
				<path
   style="fill:#f5f5f5"
   d="m 117.894,287.657 -0.672,-0.19 c -1.579,-0.448 -2.497,-2.091 -2.05,-3.671 l 4.456,-15.724 c 0.448,-1.58 2.091,-2.497 3.67,-2.05 l 0.672,0.19 c 1.579,0.448 2.497,2.091 2.05,3.67 l -4.456,15.724 c -0.447,1.581 -2.09,2.499 -3.67,2.051 z"
   id="path102" />
			</g>
			<g
   id="g105">
				<g
   id="g104">
					<path
   style="fill:#263238"
   d="m 117.894,287.657 c 0.005,-0.019 0.181,0.046 0.529,0.069 0.344,0.027 0.874,0.007 1.475,-0.266 0.59,-0.267 1.25,-0.835 1.542,-1.723 0.265,-0.901 0.543,-1.951 0.865,-3.098 0.645,-2.305 1.409,-5.04 2.258,-8.074 0.427,-1.519 0.875,-3.112 1.339,-4.764 0.213,-0.792 0.062,-1.691 -0.437,-2.379 -0.248,-0.343 -0.573,-0.633 -0.949,-0.838 -0.368,-0.212 -0.812,-0.295 -1.252,-0.429 -0.838,-0.236 -1.767,-0.068 -2.447,0.44 -0.341,0.25 -0.624,0.574 -0.823,0.94 -0.205,0.359 -0.287,0.782 -0.413,1.197 -0.471,1.651 -0.925,3.244 -1.358,4.762 -0.87,3.029 -1.654,5.759 -2.314,8.059 -0.166,0.573 -0.324,1.118 -0.474,1.635 -0.151,0.52 -0.31,0.994 -0.298,1.459 0.008,0.934 0.456,1.678 0.931,2.117 0.479,0.458 0.988,0.616 1.317,0.721 0.155,0.049 0.28,0.09 0.381,0.122 0.087,0.029 0.13,0.046 0.128,0.05 -0.001,0.005 -0.047,-0.004 -0.135,-0.024 -0.103,-0.026 -0.231,-0.057 -0.388,-0.096 -0.333,-0.088 -0.867,-0.233 -1.374,-0.695 -0.503,-0.442 -0.989,-1.21 -1.012,-2.193 -0.02,-0.492 0.142,-0.997 0.283,-1.508 0.144,-0.519 0.296,-1.066 0.455,-1.641 0.645,-2.305 1.409,-5.04 2.258,-8.075 0.428,-1.52 0.877,-3.114 1.342,-4.766 0.122,-0.403 0.204,-0.846 0.432,-1.253 0.217,-0.402 0.527,-0.757 0.9,-1.031 0.744,-0.557 1.764,-0.743 2.682,-0.483 0.428,0.131 0.89,0.215 1.308,0.452 0.413,0.226 0.77,0.544 1.04,0.92 0.546,0.753 0.71,1.741 0.475,2.606 -0.47,1.652 -0.923,3.245 -1.356,4.764 -0.87,3.029 -1.653,5.758 -2.314,8.059 -0.335,1.147 -0.623,2.182 -0.907,3.095 -0.322,0.93 -1.025,1.509 -1.643,1.771 -0.63,0.268 -1.176,0.27 -1.524,0.224 -0.351,-0.043 -0.522,-0.126 -0.522,-0.126 z"
   id="path103" />
				</g>
			</g>
		</g>
		<g
   id="g107">
			<path
   style="fill:#455a64"
   d="m 116.607,341.188 c -0.405,-10.041 -0.418,-21.084 5.276,-29.364 3.225,-4.689 8.079,-8.07 13.271,-10.402 5.192,-2.333 10.755,-3.699 16.283,-5.053 -6.161,8.633 -20.114,8.731 -26.017,17.543 -1.75,2.613 -2.572,5.721 -3.365,8.764 -1.64,6.294 -3.087,12.266 -4.727,18.559"
   id="path106" />
		</g>
		<g
   id="g109">
			<g
   id="g108">
				<path
   style="fill:#455a64"
   d="m 72.623,305.942 c 10e-4,-0.005 0.047,-0.003 0.137,0.006 0.106,0.012 0.237,0.027 0.399,0.045 0.349,0.051 0.87,0.09 1.528,0.218 1.324,0.209 3.226,0.629 5.506,1.377 2.282,0.743 4.916,1.892 7.653,3.504 1.358,0.823 2.74,1.758 4.103,2.82 1.354,1.074 2.686,2.275 3.952,3.599 1.272,1.322 2.396,2.721 3.396,4.13 0.515,0.694 0.961,1.417 1.418,2.111 0.422,0.715 0.858,1.404 1.225,2.107 1.534,2.781 2.597,5.449 3.314,7.738 0.715,2.291 1.115,4.196 1.306,5.523 0.119,0.66 0.148,1.182 0.193,1.531 0.015,0.162 0.028,0.293 0.038,0.399 0.007,0.09 0.008,0.137 0.004,0.137 -0.004,0 -0.015,-0.045 -0.031,-0.134 -0.017,-0.105 -0.039,-0.235 -0.065,-0.396 -0.063,-0.347 -0.109,-0.865 -0.244,-1.52 -0.223,-1.318 -0.65,-3.209 -1.385,-5.481 -0.737,-2.27 -1.813,-4.917 -3.35,-7.675 -0.368,-0.698 -0.804,-1.381 -1.226,-2.091 -0.457,-0.688 -0.902,-1.405 -1.415,-2.094 -0.996,-1.398 -2.113,-2.786 -3.376,-4.097 -1.257,-1.315 -2.578,-2.509 -3.92,-3.578 -1.352,-1.058 -2.722,-1.991 -4.067,-2.815 -2.712,-1.613 -5.323,-2.774 -7.585,-3.537 -2.261,-0.768 -4.149,-1.215 -5.463,-1.456 -0.653,-0.143 -1.171,-0.199 -1.516,-0.268 -0.16,-0.029 -0.29,-0.053 -0.395,-0.072 -0.089,-0.015 -0.135,-0.026 -0.134,-0.031 z"
   id="path107" />
			</g>
		</g>
		<g
   id="g113">
			<g
   id="g110">
				<path
   style="fill:#f5f5f5"
   d="m 82.818,309.157 -0.303,0.629 c -0.711,1.48 -2.488,2.102 -3.967,1.391 l -14.729,-7.082 c -1.48,-0.712 -2.102,-2.488 -1.391,-3.967 l 0.303,-0.629 c 0.711,-1.479 2.487,-2.102 3.967,-1.391 l 14.729,7.082 c 1.479,0.711 2.102,2.488 1.391,3.967 z"
   id="path109" />
			</g>
			<g
   id="g112">
				<g
   id="g111">
					<path
   style="fill:#263238"
   d="m 82.818,309.157 c -0.018,-0.008 0.076,-0.17 0.159,-0.509 0.086,-0.334 0.156,-0.86 -0.01,-1.499 -0.162,-0.627 -0.609,-1.374 -1.434,-1.814 -0.843,-0.415 -1.829,-0.869 -2.904,-1.383 -2.161,-1.03 -4.724,-2.251 -7.569,-3.607 -1.423,-0.681 -2.917,-1.395 -4.464,-2.135 -0.744,-0.345 -1.656,-0.35 -2.419,0.024 -0.38,0.185 -0.722,0.456 -0.989,0.792 -0.272,0.326 -0.43,0.75 -0.637,1.16 -0.376,0.785 -0.37,1.729 0.015,2.486 0.188,0.379 0.458,0.713 0.785,0.971 0.318,0.264 0.721,0.416 1.109,0.612 1.546,0.746 3.038,1.467 4.459,2.153 2.835,1.375 5.39,2.615 7.544,3.66 0.536,0.261 1.046,0.51 1.53,0.746 0.486,0.238 0.926,0.475 1.386,0.543 0.921,0.152 1.731,-0.162 2.245,-0.555 0.534,-0.394 0.776,-0.868 0.936,-1.174 0.075,-0.144 0.136,-0.26 0.185,-0.354 0.044,-0.079 0.068,-0.119 0.073,-0.117 0.004,0.002 -0.012,0.046 -0.046,0.129 -0.043,0.097 -0.096,0.217 -0.161,0.366 -0.144,0.314 -0.378,0.814 -0.92,1.234 -0.522,0.42 -1.361,0.767 -2.334,0.622 -0.488,-0.065 -0.958,-0.311 -1.437,-0.538 -0.486,-0.23 -1,-0.474 -1.539,-0.729 -2.161,-1.03 -4.724,-2.251 -7.569,-3.607 -1.424,-0.682 -2.918,-1.397 -4.466,-2.139 -0.376,-0.189 -0.798,-0.346 -1.16,-0.64 -0.358,-0.283 -0.655,-0.648 -0.862,-1.064 -0.421,-0.828 -0.43,-1.865 -0.017,-2.725 0.202,-0.399 0.364,-0.84 0.669,-1.211 0.293,-0.368 0.668,-0.665 1.085,-0.867 0.835,-0.409 1.837,-0.402 2.649,-0.022 1.547,0.746 3.039,1.465 4.461,2.151 2.835,1.375 5.39,2.615 7.543,3.66 1.073,0.527 2.043,0.987 2.894,1.423 0.861,0.477 1.311,1.268 1.463,1.922 0.156,0.666 0.064,1.204 -0.04,1.54 -0.103,0.341 -0.213,0.495 -0.213,0.495 z"
   id="path110" />
				</g>
			</g>
		</g>
	</g>
	<g
   id="g119">
		<g
   id="g115">
			<path
   style="fill:#455a64"
   d="m 622.051,314.599 c 5.125,36.498 10.251,72.995 15.376,109.493 l 4.001,0.13 c -2.551,-37.188 -5.27,-75.119 -19.377,-109.623 z"
   id="path114" />
		</g>
		<g
   id="g116">
			<path
   style="fill:#455a64"
   d="m 664.754,309.471 c -10.74,11.765 -15.06,27.95 -17.78,43.646 -3.858,22.26 -4.208,48.543 -3.052,71.105 l 5.612,0.125 c -2.273,-38.97 2.995,-77.803 15.22,-114.876 z"
   id="path115" />
		</g>
		<g
   id="g117">
			<path
   style="fill:#455a64"
   d="m 624.878,379.376 c -1.234,-5.423 -2.646,-10.942 -5.742,-15.563 -4.183,-6.242 -10.998,-10.19 -17.855,-13.262 -6.857,-3.072 -14.07,-5.531 -20.265,-9.784 6.912,11.334 22.602,14.351 30.593,24.952 3.975,5.275 5.625,11.892 7.183,18.31 3.397,13.996 5.488,26.109 8.885,40.105 h 4.547 c -1.5,-15.209 -3.955,-29.856 -7.346,-44.758 z"
   id="path116" />
		</g>
		<g
   id="g118">
			<path
   style="fill:#455a64"
   d="m 653.631,424.223 c 0,0 3.851,-43.487 6.706,-51.47 2.855,-7.984 29.847,-30.044 29.587,-29.006 -0.26,1.038 -20.244,25.175 -23.099,30.106 -2.855,4.931 -7.786,50.37 -7.786,50.37 z"
   id="path117" />
		</g>
	</g>
</g>
<g
   id="Birds"
   transform="translate(-50.325919,-41.224835)">
	<g
   id="g121">
		<g
   id="g120">
			<path
   style="fill:#263238"
   d="m 255.578,141.726 c -0.022,0.063 -1.104,-0.381 -3.147,-0.835 -2.033,-0.446 -5.084,-0.841 -8.784,-0.338 -3.674,0.491 -8.027,1.969 -11.837,5.105 -3.802,3.079 -7.056,7.739 -8.355,13.266 -0.013,0.05 -0.026,0.101 -0.038,0.147 l -0.244,0.948 -0.364,-0.899 c -2.127,-5.252 -5.905,-9.426 -10.004,-12.079 -4.109,-2.702 -8.529,-3.821 -12.217,-4.073 -3.711,-0.259 -6.722,0.274 -8.729,0.799 -2.015,0.532 -3.079,1 -3.103,0.939 -0.009,-0.02 0.253,-0.145 0.759,-0.366 0.505,-0.224 1.269,-0.515 2.277,-0.812 2.005,-0.603 5.045,-1.215 8.824,-1.01 3.751,0.198 8.284,1.292 12.507,4.029 4.209,2.686 8.094,6.945 10.277,12.334 l -0.608,0.049 c 0.012,-0.048 0.026,-0.099 0.039,-0.151 1.337,-5.684 4.691,-10.449 8.607,-13.578 3.926,-3.19 8.403,-4.654 12.149,-5.096 3.776,-0.454 6.864,0.019 8.9,0.544 1.024,0.258 1.802,0.524 2.316,0.733 0.517,0.206 0.783,0.323 0.775,0.344 z"
   id="path119" />
		</g>
	</g>
	<g
   id="g123">
		<g
   id="g122">
			<path
   style="fill:#263238"
   d="m 352.997,83.472 c -0.02,0.053 -0.621,-0.173 -1.744,-0.405 -1.117,-0.228 -2.788,-0.427 -4.806,-0.14 -2.005,0.282 -4.371,1.097 -6.44,2.81 -2.066,1.682 -3.832,4.221 -4.539,7.226 l -0.021,0.08 -0.244,0.948 -0.364,-0.899 c -1.157,-2.858 -3.211,-5.134 -5.441,-6.586 -2.235,-1.478 -4.64,-2.099 -6.654,-2.25 -2.026,-0.155 -3.675,0.121 -4.779,0.392 -1.108,0.274 -1.701,0.514 -1.722,0.463 -0.009,-0.02 0.131,-0.098 0.407,-0.228 0.275,-0.132 0.693,-0.301 1.248,-0.473 1.103,-0.35 2.781,-0.703 4.874,-0.603 2.078,0.096 4.596,0.693 6.944,2.206 2.34,1.485 4.501,3.847 5.714,6.841 l -0.607,0.049 0.021,-0.084 c 0.744,-3.161 2.611,-5.806 4.791,-7.539 2.186,-1.766 4.676,-2.569 6.752,-2.8 2.094,-0.239 3.8,0.039 4.921,0.346 0.564,0.151 0.991,0.306 1.271,0.43 0.283,0.122 0.426,0.196 0.418,0.216 z"
   id="path121" />
		</g>
	</g>
	<g
   id="g125">
		<g
   id="g124">
			<path
   style="fill:#263238"
   d="m 284.788,69.84 c 0.039,0.04 -0.601,0.689 -1.689,1.915 -1.089,1.224 -2.573,3.084 -4.122,5.565 -3.114,4.898 -6.228,12.703 -6.121,21.659 -10e-4,0.093 -10e-4,0.187 -0.002,0.273 l -0.635,0.052 c -0.662,-4.369 -2.12,-8.38 -3.96,-11.73 -1.836,-3.361 -3.992,-6.091 -6.029,-8.145 -2.035,-2.061 -3.891,-3.514 -5.227,-4.432 -1.334,-0.922 -2.107,-1.387 -2.078,-1.437 0.011,-0.019 0.214,0.079 0.592,0.283 0.37,0.216 0.947,0.49 1.624,0.948 1.388,0.861 3.306,2.274 5.408,4.32 2.104,2.039 4.331,4.78 6.225,8.18 1.899,3.389 3.403,7.467 4.078,11.921 l -0.635,0.052 c 0.001,-0.088 0.001,-0.183 0.002,-0.278 -0.109,-9.112 3.132,-17.02 6.378,-21.909 1.615,-2.478 3.168,-4.311 4.32,-5.491 0.556,-0.61 1.05,-1.023 1.361,-1.324 0.32,-0.293 0.495,-0.438 0.51,-0.422 z"
   id="path123" />
		</g>
	</g>
</g>
<g
   id="Sea"
   transform="translate(-4.4900193,-38.890835)">
	<g
   id="g126">
		<path
   style="fill:#263238"
   d="m 692.151,225.43 c 0,0.144 -153.95,0.26 -343.814,0.26 -189.929,0 -343.847,-0.117 -343.847,-0.26 0,-0.143 153.917,-0.26 343.847,-0.26 189.864,-10e-4 343.814,0.116 343.814,0.26 z"
   id="path125" />
	</g>
	<g
   id="g134">
		<g
   id="g127">
			<path
   style="fill:#263238"
   d="m 683.597,424.134 c 0,0.144 -23.615,0.26 -52.739,0.26 -29.134,0 -52.745,-0.117 -52.745,-0.26 0,-0.144 23.61,-0.26 52.745,-0.26 29.124,0 52.739,0.116 52.739,0.26 z"
   id="path126" />
		</g>
		<g
   id="g128">
			<path
   style="fill:#455a64"
   d="m 632.424,426.611 c 0,0.144 -0.833,0.26 -1.859,0.26 -1.027,0 -1.859,-0.117 -1.859,-0.26 0,-0.143 0.832,-0.26 1.859,-0.26 1.026,-10e-4 1.859,0.116 1.859,0.26 z"
   id="path127" />
		</g>
		<g
   id="g129">
			<path
   style="fill:#455a64"
   d="m 641.858,427.161 c 0,0.144 -0.879,0.26 -1.963,0.26 -1.084,0 -1.963,-0.117 -1.963,-0.26 0,-0.143 0.879,-0.26 1.963,-0.26 1.085,0 1.963,0.117 1.963,0.26 z"
   id="path128" />
		</g>
		<g
   id="g130">
			<path
   style="fill:#455a64"
   d="m 648.469,427.299 c 0,0.144 -0.755,0.26 -1.687,0.26 -0.932,0 -1.687,-0.117 -1.687,-0.26 0,-0.144 0.755,-0.26 1.687,-0.26 0.932,0 1.687,0.116 1.687,0.26 z"
   id="path129" />
		</g>
		<g
   id="g131">
			<path
   style="fill:#455a64"
   d="m 658.248,427.161 c 0,0.144 -0.987,0.26 -2.204,0.26 -1.217,0 -2.204,-0.117 -2.204,-0.26 0,-0.143 0.986,-0.26 2.204,-0.26 1.217,0 2.204,0.117 2.204,0.26 z"
   id="path130" />
		</g>
		<g
   id="g132">
			<path
   style="fill:#455a64"
   d="m 649.571,429.296 c 0,0.144 -0.817,0.26 -1.825,0.26 -1.008,0 -1.825,-0.117 -1.825,-0.26 0,-0.144 0.817,-0.26 1.825,-0.26 1.008,0 1.825,0.116 1.825,0.26 z"
   id="path131" />
		</g>
		<g
   id="g133">
			<path
   style="fill:#455a64"
   d="m 644.2,430.054 c 0,0.144 -0.971,0.26 -2.169,0.26 -1.198,0 -2.169,-0.117 -2.169,-0.26 0,-0.143 0.971,-0.26 2.169,-0.26 1.197,-10e-4 2.169,0.116 2.169,0.26 z"
   id="path132" />
		</g>
	</g>
	<g
   id="g135">
		<path
   style="fill:#263238"
   d="m 606.794,292.572 c 0,0.144 -29.938,0.26 -66.859,0.26 -36.934,0 -66.866,-0.117 -66.866,-0.26 0,-0.144 29.931,-0.26 66.866,-0.26 36.921,0 66.859,0.116 66.859,0.26 z"
   id="path134" />
	</g>
	<g
   id="g136">
		<path
   style="fill:#263238"
   d="m 646.079,304.753 c 0,0.144 -29.938,0.26 -66.859,0.26 -36.934,0 -66.866,-0.116 -66.866,-0.26 0,-0.144 29.931,-0.26 66.866,-0.26 36.921,-10e-4 66.859,0.116 66.859,0.26 z"
   id="path135" />
	</g>
	<g
   id="g137">
		<path
   style="fill:#455a64"
   d="m 734.603,232.997 c 0,0.144 -63.165,0.26 -141.065,0.26 -77.927,0 -141.078,-0.117 -141.078,-0.26 0,-0.144 63.151,-0.26 141.078,-0.26 77.9,-0.001 141.065,0.116 141.065,0.26 z"
   id="path136" />
	</g>
	<g
   id="g138">
		<path
   style="fill:#455a64"
   d="m 525.717,238.255 c 0,0.144 -18.743,0.26 -41.859,0.26 -23.124,0 -41.863,-0.117 -41.863,-0.26 0,-0.144 18.739,-0.26 41.863,-0.26 23.116,-0.001 41.859,0.116 41.859,0.26 z"
   id="path137" />
	</g>
	<g
   id="g139">
		<path
   style="fill:#455a64"
   d="m 744.327,237.79 c 0,0.144 -15.099,0.26 -33.72,0.26 -18.628,0 -33.723,-0.117 -33.723,-0.26 0,-0.144 15.096,-0.26 33.723,-0.26 18.621,-0.001 33.72,0.116 33.72,0.26 z"
   id="path138" />
	</g>
	<g
   id="g145">
		<g
   id="g140">
			<path
   style="fill:#263238"
   d="m 211.633,341.489 c 0,0.144 -30.094,0.26 -67.209,0.26 -37.128,0 -67.216,-0.117 -67.216,-0.26 0,-0.144 30.088,-0.26 67.216,-0.26 37.114,-10e-4 67.209,0.116 67.209,0.26 z"
   id="path139" />
		</g>
		<g
   id="g141">
			<path
   style="fill:#263238"
   d="m 222.168,326.238 c 0,0.144 -11.442,0.26 -25.553,0.26 -14.116,0 -25.556,-0.116 -25.556,-0.26 0,-0.144 11.44,-0.26 25.556,-0.26 14.111,0 25.553,0.116 25.553,0.26 z"
   id="path140" />
		</g>
		<g
   id="g142">
			<path
   style="fill:#455a64"
   d="m 123.953,345.909 c 0,0.144 -4.584,0.26 -10.238,0.26 -5.656,0 -10.239,-0.117 -10.239,-0.26 0,-0.143 4.583,-0.26 10.239,-0.26 5.653,0 10.238,0.116 10.238,0.26 z"
   id="path141" />
		</g>
		<g
   id="g143">
			<path
   style="fill:#455a64"
   d="m 111.99,350.578 c -0.007,0.144 -1.829,0.169 -4.068,0.058 -2.24,-0.112 -4.049,-0.319 -4.042,-0.463 0.007,-0.144 1.828,-0.169 4.068,-0.058 2.24,0.112 4.049,0.32 4.042,0.463 z"
   id="path142" />
		</g>
		<g
   id="g144">
			<path
   style="fill:#455a64"
   d="m 107.53,355.844 c -0.008,0.144 -0.831,0.215 -1.839,0.159 -1.008,-0.056 -1.818,-0.218 -1.81,-0.362 0.008,-0.143 0.831,-0.215 1.839,-0.159 1.008,0.056 1.818,0.218 1.81,0.362 z"
   id="path143" />
		</g>
	</g>
</g>
<g
   id="Mountain"
   transform="translate(6.3467807,-38.288835)">
	<g
   id="g151">
		<path
   style="fill:#455a64"
   d="m 739.389,164.037 c -8.418,-5.642 -28.066,-6.099 -35.504,0.783 -2.941,-5.615 -13.485,-3.025 -13.489,3.313 -5.234,-4.249 -14.58,1.853 -12.794,8.355 -3.867,-4.953 -13.399,-2.636 -14.562,3.539 -9.595,-3.396 -19.19,-6.792 -28.784,-10.188 -11.349,-7.141 -26.332,-8.118 -38.512,-2.512 -1.726,-2.82 -5.707,-3.984 -8.68,-2.538 -2.973,1.446 -4.515,5.297 -3.362,8.395 -3.783,-2.503 -9.68,-0.589 -11.272,3.659 -3.122,-4.164 -11.269,-1.305 -11.106,3.896 -4.407,-2.637 -11.052,1.133 -11.05,6.269 -2.479,-4.513 -10.23,-4.442 -12.626,0.116 -1.343,-4.799 -6.707,-8.084 -11.592,-7.1 -7.775,-7.109 -20.276,-8.417 -29.354,-3.072 -1.682,-2.641 -5.362,-3.792 -8.248,-2.579 -2.887,1.212 -4.642,4.646 -3.933,7.695 -4.552,-3.861 -12.667,-1.886 -14.936,3.634 -3.228,-3.964 -11.14,-0.447 -10.358,4.606 -2.795,-4.018 -10.649,-0.569 -9.581,4.208 -2.752,-4.645 -11.677,-1.4 -10.804,3.927 -5.62,-3.567 -14.22,-0.579 -16.418,5.704 -2.389,-4.88 -11.539,-2.669 -11.437,2.763 -3.04,-5.475 -11.77,-6.496 -15.992,-1.869 -4.198,-4.918 -12.587,-5.42 -17.341,-1.038 1.578,-4.21 -3.278,-9.198 -7.529,-7.733 0.241,-6.02 -5.261,-11.648 -11.284,-11.543 -6.024,0.104 -11.327,5.919 -10.878,11.927 -2.745,-1.647 -6.82,-0.273 -8.006,2.701 -1.187,2.974 0.822,6.775 3.947,7.471 -2.006,-3.174 -7.046,-3.818 -9.785,-1.25 -2.739,2.568 -2.423,7.639 0.615,9.846 -3.043,-2.166 -7.508,-2.066 -10.451,0.235 -2.943,2.3 -4.118,6.609 -2.75,10.085 H 739.39 v -61.705 z"
   id="path145" />
		<g
   id="g146">
			<path
   style="fill:#263238"
   d="m 547.113,187.068 c -0.025,0.028 -0.347,-0.295 -1.06,-0.737 -0.71,-0.43 -1.854,-0.974 -3.414,-1.099 -1.527,-0.133 -3.539,0.199 -5.192,1.611 -1.634,1.365 -2.889,3.779 -2.604,6.423 l 0.027,0.255 -0.256,-0.007 c -2.482,-0.063 -5.161,1.143 -7.064,3.296 -1.902,2.109 -3.114,5.249 -2.415,8.32 l 0.105,0.46 -0.448,-0.157 c -0.379,-0.132 -0.793,-0.257 -1.22,-0.343 -3.194,-0.649 -6.574,0.551 -8.491,2.837 -1.946,2.285 -2.542,5.359 -1.938,7.868 l 0.12,0.496 -0.45,-0.246 c -2.402,-1.314 -5.074,-1.459 -7.238,-0.972 -2.201,0.436 -3.934,1.471 -5.17,2.483 -2.486,2.114 -2.925,4.102 -3.033,4.019 -0.011,-0.004 0.025,-0.115 0.105,-0.326 0.089,-0.207 0.188,-0.534 0.394,-0.922 0.403,-0.777 1.119,-1.883 2.362,-2.973 1.24,-1.066 3.001,-2.161 5.263,-2.643 2.222,-0.532 5.001,-0.422 7.538,0.94 l -0.33,0.25 c -0.658,-2.646 -0.055,-5.873 1.994,-8.301 2.033,-2.437 5.592,-3.707 8.977,-3.022 0.453,0.091 0.893,0.224 1.296,0.365 l -0.343,0.303 c -0.743,-3.281 0.555,-6.576 2.55,-8.771 1.997,-2.243 4.822,-3.5 7.448,-3.41 l -0.229,0.249 c -0.277,-2.83 1.078,-5.342 2.814,-6.754 1.765,-1.463 3.88,-1.767 5.451,-1.59 1.608,0.168 2.764,0.768 3.464,1.243 0.351,0.243 0.604,0.452 0.759,0.608 0.159,0.155 0.236,0.238 0.228,0.247 z"
   id="path146" />
		</g>
		<g
   id="g147">
			<path
   style="fill:#263238"
   d="m 675.324,174.908 c 0.018,0.145 -2.418,-0.485 -6.302,0.727 -1.905,0.621 -4.151,1.711 -6.188,3.604 -2.066,1.831 -3.885,4.526 -4.67,7.796 l -0.049,0.202 -0.207,-0.019 c -2.434,-0.228 -5.101,0.357 -7.415,1.804 -2.326,1.4 -4.329,3.62 -5.378,6.33 -0.4,0.948 -0.581,1.955 -0.716,2.946 l -0.059,0.433 -0.349,-0.245 c -2.891,-2.024 -6.896,-1.862 -9.45,0.02 -2.596,1.888 -3.727,5.115 -3.349,7.791 l 0.069,0.491 -0.405,-0.286 c -2.061,-1.456 -4.583,-1.65 -6.516,-1.087 -1.974,0.551 -3.338,1.866 -4.133,3.07 -0.814,1.222 -1.109,2.365 -1.237,3.132 -0.122,0.775 -0.101,1.198 -0.135,1.198 -0.011,0 -0.021,-0.104 -0.03,-0.309 -0.013,-0.205 -0.004,-0.51 0.037,-0.906 0.09,-0.786 0.352,-1.967 1.159,-3.247 0.786,-1.259 2.179,-2.659 4.241,-3.269 2.015,-0.617 4.656,-0.454 6.861,1.07 l -0.335,0.205 c -0.422,-2.829 0.736,-6.223 3.484,-8.249 2.723,-2.015 6.94,-2.203 10.038,-0.047 l -0.408,0.188 c 0.139,-1.04 0.331,-2.096 0.748,-3.086 2.229,-5.713 8.247,-9.016 13.329,-8.416 l -0.256,0.182 c 0.832,-3.382 2.733,-6.132 4.867,-7.983 2.107,-1.912 4.417,-2.99 6.368,-3.583 1.968,-0.584 3.605,-0.677 4.705,-0.642 0.551,0.007 0.971,0.089 1.255,0.113 0.282,0.034 0.428,0.059 0.426,0.072 z"
   id="path147" />
		</g>
		<g
   id="g148">
			<path
   style="fill:#263238"
   d="m 591.879,220.536 c -0.025,-0.014 0.128,-0.391 0.548,-0.992 0.419,-0.597 1.132,-1.414 2.234,-2.148 1.092,-0.73 2.608,-1.362 4.375,-1.435 1.751,-0.086 3.732,0.368 5.428,1.515 l -0.397,0.147 0.016,-0.052 c 0.585,-2.021 2.21,-3.474 3.89,-4.051 1.71,-0.617 3.429,-0.256 4.588,0.375 1.188,0.632 1.91,1.488 2.287,2.117 0.381,0.637 0.469,1.043 0.446,1.05 -0.043,0.019 -0.196,-0.358 -0.615,-0.937 -0.414,-0.573 -1.145,-1.347 -2.284,-1.901 -1.12,-0.554 -2.702,-0.842 -4.261,-0.252 -1.538,0.553 -3.024,1.912 -3.55,3.741 l -0.015,0.047 -0.11,0.342 -0.288,-0.195 c -1.592,-1.077 -3.458,-1.522 -5.117,-1.466 -1.672,0.043 -3.121,0.604 -4.196,1.266 -2.172,1.363 -2.892,2.909 -2.979,2.829 z"
   id="path148" />
		</g>
		<g
   id="g149">
			<path
   style="fill:#263238"
   d="m 430.73,204.076 c 0.022,0.08 -0.929,0.098 -2.249,0.918 -0.643,0.415 -1.378,1.027 -1.958,1.925 -0.595,0.877 -1.029,2.051 -1.014,3.346 l 0.006,0.504 -0.38,-0.332 c -0.951,-0.831 -2.294,-1.39 -3.757,-1.466 -1.458,-0.076 -3.039,0.372 -4.23,1.437 -1.592,1.411 -2.334,3.554 -2.096,5.385 l 0.078,0.597 -0.472,-0.375 c -1.302,-1.034 -2.901,-1.432 -4.274,-1.355 -1.388,0.071 -2.54,0.617 -3.357,1.215 -1.645,1.249 -2.031,2.516 -2.111,2.455 -0.02,-0.008 0.059,-0.309 0.332,-0.815 0.276,-0.499 0.76,-1.211 1.596,-1.878 0.827,-0.659 2.032,-1.279 3.513,-1.388 1.462,-0.114 3.179,0.278 4.604,1.384 l -0.394,0.223 c -0.278,-1.994 0.508,-4.304 2.236,-5.838 1.3,-1.162 3.036,-1.644 4.601,-1.547 1.575,0.094 3.014,0.714 4.028,1.631 l -0.374,0.172 c 0.007,-1.411 0.505,-2.652 1.16,-3.561 0.641,-0.93 1.436,-1.544 2.128,-1.943 0.701,-0.395 1.315,-0.567 1.733,-0.646 0.422,-0.067 0.649,-0.068 0.651,-0.048 z"
   id="path149" />
		</g>
		<g
   id="g150">
			<path
   style="fill:#263238"
   d="m 722.441,178.406 c -0.008,0.127 -1.722,-0.513 -4.528,0.022 -1.385,0.266 -3.012,0.857 -4.562,1.959 -1.555,1.075 -3.006,2.709 -3.843,4.778 l -0.104,0.256 -0.248,-0.12 c -1.035,-0.501 -2.19,-0.858 -3.401,-1.035 -2.641,-0.36 -5.253,0.178 -7.261,1.307 -2.032,1.113 -3.444,2.753 -4.336,4.253 -0.896,1.516 -1.285,2.913 -1.483,3.876 -0.185,0.971 -0.203,1.525 -0.252,1.523 -0.018,-0.001 -0.027,-0.139 -0.028,-0.403 -0.009,-0.265 0.021,-0.654 0.08,-1.153 0.14,-0.991 0.482,-2.439 1.364,-4.026 0.877,-1.57 2.309,-3.3 4.421,-4.489 2.086,-1.203 4.809,-1.781 7.567,-1.404 1.265,0.185 2.474,0.561 3.555,1.092 l -0.351,0.135 c 0.893,-2.178 2.432,-3.868 4.064,-4.959 1.627,-1.118 3.324,-1.69 4.758,-1.919 1.439,-0.23 2.617,-0.156 3.4,-0.012 0.395,0.053 0.688,0.162 0.89,0.21 0.201,0.057 0.302,0.094 0.298,0.109 z"
   id="path150" />
		</g>
	</g>
</g>

</svg>
